<svg width="1500" height="500" viewBox="0 0 1500 500" fill="none" xmlns="http://www.w3.org/2000/svg">
<rect width="1500" height="500" fill="#0A364A"/>
<path d="M257 400C556.022 374.621 679.558 393.148 679.558 393.148C624.496 381.446 564.671 377.343 507.797 377.344C374.193 377.348 257 400 257 400Z" fill="white"/>
<path d="M543.01 360.803L553.306 369.315C555.718 369.43 558.131 369.537 560.543 369.666L542.585 354.597C542.719 356.665 542.862 358.734 543.01 360.803" fill="white"/>
<path d="M490.128 142.553C487.273 142.862 484.43 142.99 481.592 142.995V244.163C482.224 241.833 482.844 239.502 483.44 237.167C482.919 251.802 482.39 266.438 481.796 281.071H501.98L502.55 281.57L535.72 310.788C536.462 307.82 537.317 304.884 538.273 301.982L509.874 276.841H491.405V142.411C490.978 142.456 490.555 142.513 490.128 142.553" fill="white"/>
<path d="M453.778 299.471L461.874 308.583V338.971L469.515 347.341C466.535 334.561 467.048 321.445 469.024 308.533L459.033 297.289C457.307 298.075 455.55 298.79 453.778 299.471" fill="white"/>
<path d="M462.799 295.477L469.874 303.441C470.706 298.839 471.684 294.271 472.725 289.765C469.551 291.825 466.23 293.742 462.799 295.477" fill="white"/>
<path d="M520.001 136.428V244.412L551.342 272.193C552.15 270.654 552.967 269.123 553.796 267.601C554.123 267.014 554.465 266.432 554.796 265.849L531.347 244.448V133.076C527.57 134.214 523.792 135.348 520.001 136.428" fill="white"/>
<path d="M553.971 126.773C550.684 127.541 547.421 128.405 544.167 129.313V166.444L582.845 203.701V226.061C583.74 225.101 584.617 224.128 585.541 223.193C586.262 222.461 587.024 221.784 587.797 221.126V200.715L551.361 164.533V138.286C551.266 138.25 551.167 138.229 551.074 138.183C548.927 137.16 548.016 134.59 549.04 132.444C550.064 130.297 552.634 129.388 554.782 130.41C556.928 131.434 557.84 134.004 556.815 136.151C556.482 136.849 555.975 137.402 555.379 137.813V162.861L591.817 199.044V218.167C594.48 216.453 597.329 215.027 600.301 213.88V198.073L562.569 159.034V124.841C559.691 125.451 556.825 126.101 553.971 126.773" fill="white"/>
<path d="M542.779 317.005L584.473 353.733V371.214C587.745 371.464 591.015 371.735 594.286 372.013V352.164C593.179 351.924 592.075 351.691 590.98 351.456C590.687 350.303 590.447 349.143 590.233 347.98L545.504 308.382C544.522 311.233 543.63 314.114 542.779 317.005Z" fill="white"/>
<path d="M395.411 167.42C395.757 168.39 395.77 169.481 395.345 170.509C394.433 172.705 391.913 173.746 389.717 172.835C387.519 171.924 386.477 169.405 387.389 167.209C388.221 165.201 390.399 164.177 392.444 164.709L418.34 136.665C416.422 136.758 414.502 136.91 412.578 137.15C406.536 137.82 400.629 139.191 394.923 141.142L348.996 190.409C349.115 191.166 349.047 191.962 348.73 192.723C347.821 194.918 345.3 195.959 343.103 195.048C340.905 194.136 339.862 191.618 340.774 189.423C341.686 187.226 344.206 186.183 346.404 187.095C346.448 187.113 346.485 187.142 346.529 187.163L386.103 144.71C373.492 150.598 362.188 159.371 353.173 169.944C339.431 185.962 330.144 205.718 326.229 226.425C326.106 227.37 325.963 228.337 325.831 229.312L332.54 238.098C334.061 236.262 335.281 233.913 336.643 232.334C335.868 235.094 335.155 237.865 334.483 240.644L342.987 251.779C343.846 251.568 344.774 251.608 345.655 251.972C347.852 252.885 348.893 255.403 347.983 257.599C347.071 259.796 344.55 260.839 342.354 259.927C340.209 259.037 339.178 256.618 339.976 254.459L333.321 245.743C332.849 247.898 332.411 250.057 331.994 252.221L335.618 257.085C336.262 257.041 336.923 257.125 337.558 257.389C339.756 258.3 340.798 260.819 339.887 263.014C338.975 265.211 336.455 266.253 334.257 265.341C332.061 264.43 331.019 261.911 331.931 259.715C332.003 259.538 332.103 259.381 332.198 259.219L331.006 257.621C330.576 260.132 330.178 262.649 329.818 265.17C330.119 266.108 330.12 267.148 329.712 268.13C329.602 268.397 329.465 268.645 329.31 268.876C327.025 286.388 326.272 304.106 326.354 321.821L351.226 298.773V232.604C349.153 231.632 348.185 229.204 349.07 227.07C349.982 224.874 352.502 223.831 354.698 224.743C356.896 225.654 357.939 228.174 357.026 230.369C356.657 231.261 356.015 231.95 355.245 232.407V300.526L326.397 327.259C326.438 330.225 326.502 333.188 326.582 336.152C328.049 336.914 329.06 338.43 329.06 340.196C329.06 341.861 328.163 343.302 326.835 344.103C327.002 348.62 327.195 353.134 327.419 357.635C327.587 359.737 327.671 361.857 327.753 363.98C328.254 363.776 328.801 363.659 329.376 363.659C331.763 363.659 333.699 365.594 333.699 367.981C333.699 370.366 331.763 372.302 329.376 372.302C329.034 372.302 328.706 372.252 328.385 372.177L328.253 372.302C328.566 375.351 329.095 378.366 330.097 381.304C334.521 380.753 338.942 380.172 343.362 379.582V359.352C342.013 358.63 341.087 357.225 341.087 355.59C341.087 353.223 343.005 351.305 345.373 351.305C347.74 351.305 349.659 353.223 349.659 355.59C349.659 357.225 348.73 358.63 347.381 359.352V379.048C351.346 378.515 355.309 377.981 359.274 377.45V223.59L351.805 216.824C350.74 217.336 349.476 217.424 348.297 216.936C346.099 216.025 345.056 213.505 345.968 211.308C346.879 209.112 349.401 208.07 351.597 208.981C353.453 209.752 354.47 211.668 354.196 213.568L363.292 221.808V376.911C365.37 376.636 367.45 376.368 369.53 376.099V352.948C369.419 352.94 369.31 352.921 369.197 352.915C369.261 351.951 369.378 351.012 369.53 350.09V214.476L360.767 205.606C359.744 206.035 358.556 206.075 357.449 205.615C355.251 204.705 354.209 202.186 355.12 199.989C356.032 197.792 358.553 196.751 360.75 197.661C362.681 198.462 363.717 200.503 363.324 202.476L373.549 212.827V339.114C375.592 335.486 378.157 332.103 380.844 328.778V212.703L372.938 202.073C372.51 202.035 372.08 201.954 371.661 201.78C369.463 200.869 368.423 198.35 369.334 196.153C370.246 193.957 372.765 192.915 374.962 193.826C377.16 194.737 378.203 197.257 377.291 199.452C377.143 199.809 376.94 200.123 376.715 200.415L384.863 211.373V323.87C387.813 320.256 390.67 316.6 392.907 312.656C399.28 302.549 403.116 290.747 403.258 278.769C403.743 280.393 404.448 281.881 405.322 283.236V202.292L392.138 188.598C391.096 189.061 389.877 189.12 388.742 188.649C386.544 187.737 385.502 185.218 386.414 183.023C387.325 180.826 389.845 179.785 392.042 180.695C393.935 181.48 394.963 183.457 394.631 185.394L409.34 200.672V287.703C411.539 289.494 414.121 290.841 416.861 291.739V169.817C414.743 168.867 413.745 166.406 414.64 164.247C415.552 162.051 418.072 161.009 420.27 161.921C422.467 162.831 423.508 165.351 422.598 167.547C422.238 168.414 421.623 169.092 420.881 169.55V292.71C421.239 292.767 421.6 292.827 421.961 292.868C423.869 293.124 425.794 293.298 427.726 293.4V189.597C425.732 188.591 424.81 186.218 425.679 184.122C426.591 181.925 429.111 180.884 431.309 181.794C433.505 182.706 434.548 185.225 433.635 187.421C433.249 188.353 432.564 189.061 431.746 189.517V293.5C435.303 293.493 438.864 293.228 442.388 292.698L438.207 287.989V146.201C436.286 145.164 435.41 142.84 436.265 140.782C437.176 138.586 439.696 137.543 441.895 138.455C444.091 139.365 445.133 141.886 444.221 144.082C443.818 145.053 443.091 145.782 442.226 146.233V286.465L447.006 291.846C448.967 291.415 450.906 290.898 452.818 290.296L447.589 284.41V220.762C445.58 219.762 444.649 217.378 445.521 215.275C446.432 213.078 448.952 212.037 451.15 212.948C453.348 213.859 454.388 216.378 453.478 218.575C453.094 219.498 452.418 220.202 451.608 220.659V282.884L456.919 288.862C459.33 287.923 461.685 286.844 463.961 285.613C467.275 284.109 468.558 280.559 470.047 277.534C472.95 271.102 475.406 264.493 477.574 257.791V142.919C473.943 142.775 470.32 142.439 466.702 141.996V270.685C468.641 271.713 469.529 274.05 468.671 276.118C467.76 278.314 465.24 279.357 463.043 278.446C460.846 277.535 459.803 275.016 460.715 272.819C461.114 271.857 461.83 271.135 462.683 270.683V141.462C449.762 139.626 436.891 136.782 423.889 136.578L395.411 167.42Z" fill="white"/>
<path d="M481.633 285.087C481.218 295.094 480.746 305.1 480.237 315.103L485.977 321.564V343.476L493.79 349.845C494.868 349.306 496.161 349.201 497.364 349.701C499.561 350.611 500.603 353.13 499.691 355.326C498.78 357.523 496.26 358.564 494.062 357.654C492.226 356.892 491.216 355.008 491.459 353.129L481.958 345.385V323.089L479.937 320.814C479.76 324.132 479.604 327.45 479.414 330.767C478.839 339.021 478.531 347.348 476.956 355.489L488.505 368.139C493.61 368.081 498.715 368.068 503.82 368.081V347.892L494.013 338.55C493.071 338.858 492.023 338.861 491.035 338.451C488.838 337.54 487.795 335.021 488.707 332.824C489.618 330.628 492.138 329.587 494.336 330.498C496.38 331.345 497.403 333.583 496.805 335.66L507.839 346.171V368.096C514.943 368.14 522.046 368.255 529.146 368.435L512.87 354.102V326.281L500.023 314.282C499.07 314.606 498.005 314.613 497 314.197C494.804 313.286 493.761 310.767 494.673 308.57C495.585 306.373 498.104 305.332 500.301 306.242C502.332 307.085 503.354 309.296 502.783 311.36L516.889 324.538V352.286L535.41 368.598C539.151 368.714 542.892 368.856 546.631 369.01L543.427 366.361C543.435 366.442 543.438 366.522 543.446 366.603C538.612 363.862 533.556 361.549 528.309 359.742C528.373 358.971 528.448 358.202 528.515 357.434C526.926 356.292 526.262 354.178 527.045 352.293C527.479 351.245 528.286 350.471 529.243 350.035C530.422 339.292 532.086 328.61 534.158 318.011C534.325 317.086 534.51 316.166 534.701 315.245L500.463 285.087H481.633Z" fill="white"/>
<path d="M507.15 139.754C506.845 140.121 506.488 140.434 506.089 140.679V249.532L545.669 283.577C546.879 280.986 548.137 278.418 549.435 275.872L515.983 246.22V137.544C513.052 138.338 510.109 139.085 507.15 139.754" fill="white"/>
<path d="M546.976 304.319L589.442 341.911C589.046 336.9 589.238 331.842 589.782 326.818L551.25 293.677C549.725 297.181 548.298 300.731 546.976 304.319" fill="white"/>
<path d="M541.226 333.966C541.607 338.991 541.917 344.021 542.228 349.051L567.267 370.063C571.665 370.329 576.061 370.618 580.455 370.933V355.545L541.556 321.283C540.439 325.411 540.981 329.746 541.226 333.966Z" fill="white"/>
<path d="M619.741 101.308V115.774L651.884 149.877C655.984 149.477 660.095 149.441 663.854 151.472C662.317 153.136 661.461 157.066 658.418 155.814C657.889 155.609 657.374 155.372 656.854 155.15L658.065 156.434C659.037 156.158 660.104 156.204 661.087 156.673C663.235 157.698 664.145 160.267 663.122 162.412C662.098 164.559 659.526 165.47 657.379 164.446C655.398 163.502 654.49 161.245 655.163 159.215L615.722 117.367V103.841C613.396 105.575 611.283 107.583 609.411 109.794V120.884L640.742 151.27C641.805 150.866 643.021 150.871 644.127 151.399C646.276 152.422 647.185 154.991 646.161 157.138C645.139 159.285 642.567 160.195 640.42 159.171C638.553 158.282 637.624 156.223 638.086 154.292L605.392 122.583V115.536C604.428 117.24 603.591 119.019 602.913 120.864C601.375 120.772 599.839 120.728 598.305 120.704V125.043L643.302 170.833C644.36 170.436 645.57 170.446 646.67 170.97C648.817 171.995 649.727 174.564 648.703 176.711C647.68 178.856 645.109 179.767 642.961 178.743C641.091 177.852 640.16 175.785 640.63 173.849L594.285 126.685V120.713C584.98 120.906 575.734 122.212 566.588 124.016V157.41L604.319 196.45V212.506C606.354 211.882 608.412 211.343 610.473 210.898C612.514 210.464 614.562 210.098 616.615 209.785V196.588L580.179 160.406V134.159C580.082 134.122 579.986 134.102 579.891 134.056C577.744 133.033 576.834 130.464 577.857 128.317C578.881 126.17 581.452 125.26 583.598 126.283C585.746 127.307 586.658 129.876 585.634 132.023C585.301 132.722 584.792 133.275 584.197 133.686V158.734L620.634 194.917V209.245C627.176 208.476 633.768 208.216 640.368 208.178V205.882C638.643 204.706 637.974 202.428 638.9 200.486C639.925 198.34 642.496 197.429 644.642 198.453C646.79 199.476 647.701 202.045 646.676 204.192C646.192 205.207 645.355 205.934 644.388 206.322V208.179C650.564 208.214 656.742 208.387 662.887 208.458C664.1 208.432 665.322 208.393 666.547 208.346V203.448L652.663 192.357C651.545 192.862 650.231 192.908 649.037 192.339C646.889 191.317 645.978 188.748 647.002 186.601C648.026 184.454 650.597 183.544 652.744 184.567C654.524 185.416 655.433 187.325 655.118 189.176L670.566 201.516V208.145C674.348 207.907 678.144 207.51 681.864 206.822L677.704 204.214V191.015L662.499 177.988C661.869 177.991 661.232 177.872 660.626 177.583C658.479 176.561 657.568 173.99 658.59 171.843C659.616 169.697 662.186 168.786 664.332 169.81C666.48 170.833 667.391 173.404 666.368 175.55C666.315 175.66 666.243 175.75 666.182 175.854L681.722 189.167V201.992L687.393 205.548C691.823 204.315 696.081 202.561 700.006 200.031C703.272 197.884 706.146 194.785 708.109 191.24L693.66 178.454C692.445 179.243 690.868 179.412 689.463 178.743C687.315 177.72 686.405 175.149 687.43 173.004C688.452 170.858 691.024 169.948 693.172 170.97C694.705 171.702 695.591 173.223 695.609 174.814L709.815 187.385C710.32 185.851 710.641 184.273 710.749 182.683L685.792 160.742C684.646 161.309 683.268 161.383 682.024 160.79C680.164 159.904 679.238 157.858 679.687 155.932C677.079 154.087 674.472 152.24 671.889 150.362C670.77 147.103 669.6 143.684 667.673 140.801V142.476C669.474 143.629 670.191 145.954 669.246 147.934C668.222 150.081 665.651 150.992 663.504 149.967C661.356 148.945 660.447 146.376 661.47 144.228C661.936 143.251 662.731 142.545 663.654 142.147V136.611C659.023 133.023 653.994 130.006 649.015 126.921C649.2 127.805 649.123 128.75 648.703 129.628C647.68 131.775 645.109 132.685 642.961 131.663C640.814 130.639 639.904 128.069 640.928 125.923C641.339 125.061 642.004 124.41 642.787 123.992V122.913C642.355 122.62 641.917 122.335 641.49 122.036C637.005 115.382 635.213 106.78 628.938 101.361C627.674 100.389 626.253 100 624.802 100C623.089 100 621.332 100.543 619.741 101.308V101.308ZM602.845 157.721C600.699 156.698 599.787 154.129 600.812 151.981C601.835 149.835 604.406 148.926 606.554 149.948C608.7 150.973 609.612 153.542 608.587 155.688C608.535 155.797 608.463 155.889 608.403 155.991L623.943 169.305V182.13L631.158 186.656C632.379 185.845 633.973 185.663 635.392 186.339C637.538 187.363 638.449 189.932 637.427 192.079C636.401 194.224 633.831 195.135 631.685 194.111C630.126 193.37 629.232 191.812 629.242 190.195L619.923 184.351V171.152L604.719 158.126C604.711 158.126 604.703 158.126 604.694 158.126C604.073 158.126 603.444 158.006 602.845 157.721" fill="white"/>
<path d="M535.366 131.868V242.675L556.837 262.273C557.906 260.428 558.998 258.597 560.108 256.774L551.032 248.405V210.543C551.023 210.538 551.011 210.536 551.001 210.531C548.852 209.508 547.942 206.939 548.967 204.793C549.991 202.646 552.561 201.735 554.707 202.758C556.854 203.783 557.766 206.352 556.742 208.498C556.36 209.3 555.761 209.927 555.052 210.347V246.645L562.267 253.3C567.268 245.345 572.713 237.674 578.825 230.55V205.408L540.147 168.153V130.458C538.552 130.922 536.958 131.392 535.366 131.868Z" fill="white"/>
<path d="M426.318 370.595C426.895 370.556 427.473 370.525 428.05 370.487L426.247 368.741C426.27 369.36 426.294 369.978 426.318 370.595Z" fill="white"/>
<path d="M384.863 374.072L385.004 374.213C389.451 373.706 393.904 373.227 398.361 372.812C395.185 366.931 390.49 361.805 384.863 358.212V374.072Z" fill="white"/>
<path d="M420.881 343.485C422.024 345.989 423.039 348.555 423.846 351.219C425.082 354.991 425.63 358.902 425.93 362.844L433.477 370.148C436.353 369.971 439.228 369.804 442.103 369.651L427.726 355.48V304.815C425.445 304.854 423.16 304.793 420.881 304.578V343.485Z" fill="white"/>
<path d="M495.423 141.922V272.823H511.397L539.697 297.876C540.985 294.334 542.413 290.839 543.939 287.387L502.071 251.376V140.941C502.015 140.916 501.968 140.879 501.914 140.851C499.762 141.262 497.599 141.617 495.423 141.922" fill="white"/>
<path d="M613.983 373.862C615.988 374.069 617.995 374.268 620 374.486V370.374C619.165 366.389 617.966 362.403 614.578 359.916C614.382 359.772 614.181 359.641 613.983 359.503V373.862Z" fill="white"/>
<path d="M598.305 372.357C602.193 372.701 606.079 373.062 609.964 373.447V357.115C606.293 355.274 602.326 354.061 598.305 353.082V372.357Z" fill="white"/>
<path d="M431.746 304.626V353.799L447.545 369.37C451.735 369.167 455.925 368.986 460.118 368.831L439.374 347.709V316.103C437.36 315.105 436.426 312.718 437.299 310.612C438.211 308.416 440.732 307.374 442.929 308.285C445.126 309.196 446.169 311.715 445.257 313.912C444.875 314.833 444.2 315.536 443.394 315.992V346.064L465.565 368.642C471.421 368.454 477.28 368.316 483.137 368.22L457.854 340.529V310.107L449.696 300.925C443.85 302.85 437.823 304.151 431.746 304.626Z" fill="white"/>
<path d="M373.549 375.583C375.98 375.277 378.41 374.977 380.843 374.688V355.992C378.52 354.899 376.081 354.059 373.549 353.527V375.583Z" fill="white"/>
<path d="M564.158 268.954L596.761 298.709C597.519 296.711 598.302 294.721 599.102 292.738L567.558 263.645C566.396 265.395 565.263 267.165 564.158 268.954" fill="white"/>
<path d="M558.561 278.594L593.154 309.256C593.802 307.081 594.51 304.925 595.267 302.785L562.029 272.451C560.837 274.476 559.68 276.523 558.561 278.594Z" fill="white"/>
<path d="M552.947 289.835L590.397 322.047C590.758 319.618 591.181 317.205 591.644 314.812C591.742 314.396 591.859 313.986 591.964 313.573L556.65 282.27C555.367 284.767 554.122 287.284 552.947 289.835" fill="white"/>
<path d="M409.339 312.065V323.072C411.825 327.288 414.448 331.44 416.86 335.693V304.055C415.604 303.848 414.349 303.603 413.1 303.31C412.145 306.356 410.87 309.274 409.339 312.065" fill="white"/>
<path d="M326.879 240.811C327.8 240.945 328.623 240.844 329.37 240.572L325.454 235.441C325.564 237.301 325.962 239.117 326.879 240.811" fill="white"/>
<path d="M604.32 225.482V259.261C604.368 259.282 604.418 259.292 604.467 259.313C606.614 260.337 607.524 262.906 606.501 265.053C605.478 267.2 602.906 268.11 600.759 267.086C598.611 266.063 597.701 263.494 598.725 261.347C599.085 260.592 599.643 260 600.302 259.581V227.362C598.085 228.575 596.011 230.043 594.164 231.875C593.368 232.629 592.599 233.412 591.817 234.181V238.273C591.901 238.307 591.989 238.326 592.074 238.366C594.223 239.389 595.132 241.958 594.108 244.105C593.085 246.251 590.514 247.163 588.367 246.138C586.22 245.115 585.309 242.546 586.332 240.399C586.672 239.687 587.19 239.128 587.797 238.713V238.256C586.109 240.026 584.459 241.829 582.845 243.667V255.165C582.859 255.171 582.875 255.173 582.89 255.18C585.037 256.204 585.947 258.773 584.925 260.92C583.9 263.067 581.329 263.977 579.183 262.954C577.034 261.93 576.123 259.361 577.147 257.213C577.527 256.417 578.121 255.794 578.826 255.374V248.396C575.673 252.237 572.673 256.201 569.838 260.282L600.718 288.762C601.423 287.036 602.129 285.311 602.828 283.583C602.506 282.575 602.542 281.453 603.034 280.422C603.434 279.582 604.074 278.94 604.833 278.52C607.192 272.421 609.328 266.245 610.775 259.838C613.25 249.457 613.857 238.672 616.615 228.369V222.153C612.468 222.953 608.253 223.924 604.32 225.482" fill="white"/>
<path d="M745.553 390.569H748.962V372.355H745.553V390.569Z" fill="white"/>
<path d="M764.163 372.329V383.648L755.236 372.355H752.451V390.569H755.885V378.288L765.464 390.594V390.569H767.6V372.329H764.163Z" fill="white"/>
<path d="M782.722 372.329V383.648L773.794 372.355H771.008V390.569H774.444V378.288L784.023 390.594V390.569H786.159V372.329H782.722Z" fill="white"/>
<path d="M788.76 381.592C788.76 386.38 791.727 390.986 798.13 390.986C804.533 390.986 807.424 386.275 807.474 381.567C807.526 376.805 804.404 371.99 798.13 371.99C791.831 371.99 788.76 376.805 788.76 381.592V381.592ZM792.142 381.644C792.065 378.574 793.835 375.114 798.13 375.114C802.425 375.114 804.144 378.547 804.091 381.619C804.039 384.611 802.425 387.837 798.13 387.837C793.835 387.837 792.222 384.637 792.142 381.644Z" fill="white"/>
<path d="M822.78 372.355L817.261 386.536L811.77 372.355H807.917L815.491 390.647H819.058L826.632 372.355H822.78Z" fill="white"/>
<path d="M835.039 372.355L826.864 390.569H830.586L832.15 387.134H841.676L843.212 390.569H846.96L838.787 372.355H835.039ZM836.912 376.18L840.296 383.933H833.528L836.912 376.18Z" fill="white"/>
<path d="M844.461 372.355V375.477H850.239V390.569H853.675V375.477H859.455V372.355H844.461Z" fill="white"/>
<path d="M861.561 390.569H864.97V372.355H861.561V390.569Z" fill="white"/>
<path d="M867.938 381.592C867.938 386.38 870.904 390.986 877.309 390.986C883.713 390.986 886.601 386.275 886.654 381.567C886.706 376.805 883.582 371.99 877.309 371.99C871.009 371.99 867.938 376.805 867.938 381.592V381.592ZM871.322 381.644C871.245 378.574 873.014 375.114 877.309 375.114C881.603 375.114 883.321 378.547 883.269 381.619C883.217 384.611 881.603 387.837 877.309 387.837C873.014 387.837 871.401 384.637 871.322 381.644Z" fill="white"/>
<path d="M901.15 372.329V383.648L892.223 372.355H889.438V390.569H892.874V378.288L902.453 390.594V390.569H904.587V372.329H901.15Z" fill="white"/>
<path d="M912.473 381.592C912.498 386.328 915.361 390.986 922.13 390.986C924.758 390.986 927.179 390.126 929.053 388.279L926.711 385.911C925.513 387.109 923.718 387.759 922.13 387.759C917.626 387.759 915.882 384.611 915.857 381.592C915.831 378.547 917.731 375.269 922.13 375.269C923.718 375.269 925.331 375.815 926.527 376.987L928.819 374.775C926.945 372.928 924.604 371.99 922.13 371.99C915.544 371.99 912.446 376.831 912.473 381.592" fill="white"/>
<path d="M930.172 381.592C930.172 386.38 933.139 390.986 939.543 390.986C945.945 390.986 948.836 386.275 948.886 381.567C948.938 376.805 945.815 371.99 939.543 371.99C933.243 371.99 930.172 376.805 930.172 381.592V381.592ZM933.555 381.644C933.477 378.574 935.247 375.114 939.543 375.114C943.838 375.114 945.555 378.547 945.503 381.619C945.451 384.611 943.838 387.837 939.543 387.837C935.247 387.837 933.633 384.637 933.555 381.644Z" fill="white"/>
<path d="M963.384 372.329V383.648L954.456 372.355H951.67V390.569H955.107V378.288L964.685 390.594V390.569H966.821V372.329H963.384Z" fill="white"/>
<path d="M969.448 381.592C969.475 386.328 972.338 390.986 979.106 390.986C981.735 390.986 984.155 390.126 986.029 388.279L983.686 385.911C982.488 387.109 980.694 387.759 979.106 387.759C974.602 387.759 972.858 384.611 972.832 381.592C972.807 378.547 974.706 375.269 979.106 375.269C980.694 375.269 982.307 375.815 983.504 376.987L985.795 374.775C983.922 372.928 981.579 371.99 979.106 371.99C972.52 371.99 969.422 376.831 969.448 381.592" fill="white"/>
<path d="M987.902 372.355V390.569H1001.54V387.187H991.313V383.076H1001.18V379.874H991.313V375.686H1001.54V372.355H987.902Z" fill="white"/>
<path d="M1004.2 372.355V390.569H1007.63V385.209H1012.79C1021.71 385.209 1021.69 372.329 1012.79 372.329C1009.92 372.329 1007.06 372.355 1004.2 372.355V372.355ZM1007.63 375.608H1012.79C1017.16 375.608 1017.19 382.06 1012.79 382.06H1007.63V375.608Z" fill="white"/>
<path d="M1020.72 372.355V375.477H1026.5V390.569H1029.94V375.477H1035.72V372.355H1020.72Z" fill="white"/>
<path d="M1037.83 390.569H1041.24V372.355H1037.83V390.569Z" fill="white"/>
<path d="M1044.2 381.592C1044.2 386.38 1047.17 390.986 1053.57 390.986C1059.97 390.986 1062.86 386.275 1062.92 381.567C1062.97 376.805 1059.85 371.99 1053.57 371.99C1047.27 371.99 1044.2 376.805 1044.2 381.592V381.592ZM1047.59 381.644C1047.51 378.574 1049.28 375.114 1053.57 375.114C1057.87 375.114 1059.58 378.547 1059.53 381.619C1059.48 384.611 1057.87 387.837 1053.57 387.837C1049.28 387.837 1047.66 384.637 1047.59 381.644Z" fill="white"/>
<path d="M1077.41 372.329V383.648L1068.49 372.355H1065.7V390.569H1069.14V378.288L1078.72 390.594V390.569H1080.85V372.329H1077.41Z" fill="white"/>
<path d="M1089.2 372.355V390.569H1102.84V387.187H1092.61V383.076H1102.48V379.874H1092.61V375.686H1102.84V372.355H1089.2Z" fill="white"/>
<path d="M1119.4 372.355L1113.88 386.536L1108.39 372.355H1104.53L1112.11 390.647H1115.67L1123.25 372.355H1119.4Z" fill="white"/>
<path d="M1124.55 381.592C1124.55 386.38 1127.52 390.986 1133.92 390.986C1140.32 390.986 1143.21 386.275 1143.27 381.567C1143.32 376.805 1140.19 371.99 1133.92 371.99C1127.62 371.99 1124.55 376.805 1124.55 381.592V381.592ZM1127.93 381.644C1127.86 378.574 1129.63 375.114 1133.92 375.114C1138.22 375.114 1139.93 378.547 1139.88 381.619C1139.83 384.611 1138.22 387.837 1133.92 387.837C1129.63 387.837 1128.01 384.637 1127.93 381.644Z" fill="white"/>
<path d="M1145.79 372.355V390.569H1158.6V387.394H1149.23V372.355H1145.79Z" fill="white"/>
<path d="M1172.52 372.382V382.816C1172.52 385.936 1170.91 387.837 1168.07 387.837C1165.23 387.837 1163.36 386.094 1163.36 382.816V372.382H1159.95V382.816C1159.95 388.304 1163.67 390.958 1168.04 390.958C1172.63 390.958 1175.93 388.201 1175.93 382.816V372.382H1172.52Z" fill="white"/>
<path d="M1178.22 372.355V375.477H1184V390.569H1187.44V375.477H1193.21V372.355H1178.22Z" fill="white"/>
<path d="M1195.32 390.569H1198.73V372.355H1195.32V390.569Z" fill="white"/>
<path d="M1201.7 381.592C1201.7 386.38 1204.67 390.986 1211.07 390.986C1217.47 390.986 1220.36 386.275 1220.41 381.567C1220.47 376.805 1217.34 371.99 1211.07 371.99C1204.77 371.99 1201.7 376.805 1201.7 381.592V381.592ZM1205.08 381.644C1205 378.574 1206.78 375.114 1211.07 375.114C1215.36 375.114 1217.08 378.547 1217.03 381.619C1216.98 384.611 1215.36 387.837 1211.07 387.837C1206.78 387.837 1205.16 384.637 1205.08 381.644Z" fill="white"/>
<path d="M1234.91 372.329V383.648L1225.98 372.355H1223.2V390.569H1226.63V378.288L1236.21 390.594V390.569H1238.35V372.329H1234.91Z" fill="white"/>
<path d="M786.625 107.435H740.925L740.955 347.084H786.625V107.435Z" fill="white"/>
<path d="M1243.62 151.709V107.433H1064.34V347.083H1243.62V302.807H1109.34V248.693H1239.41V206.526H1109.34L1108.63 151.709H1243.62Z" fill="white"/>
<path d="M1028.83 308.778C1006.96 332.135 975.835 346.731 941.302 346.731C875.097 346.731 821.428 293.084 821.428 226.907C821.428 160.729 875.097 107.082 941.302 107.082C975.478 107.082 1006.31 121.377 1028.15 144.312L1000.06 172.391C985.44 156.847 964.681 147.141 941.654 147.141C897.388 147.141 861.503 183.011 861.503 227.258C861.503 271.506 897.388 307.376 941.654 307.376C964.682 307.376 985.442 297.668 1000.06 282.124L1028.83 308.778Z" fill="white"/>
</svg>
