<svg width="1080" height="1080" viewBox="0 0 1080 1080" fill="none" xmlns="http://www.w3.org/2000/svg">
<rect width="1080" height="1080" fill="#0A364A"/>
<path d="M189.201 990H193.346V965.129H189.201V990Z" fill="white"/>
<path d="M213.515 965.129V980.541L201.303 965.164H197.492V989.966H202.191V973.243L215.296 990V989.966H218.218V965.129H213.515Z" fill="white"/>
<path d="M238.387 965.129V980.541L226.174 965.164H222.363V989.966H227.063V973.243L240.167 990V989.966H243.089V965.129H238.387Z" fill="white"/>
<path d="M245.162 977.7C245.162 983.97 249.104 990 257.615 990C266.124 990 269.966 983.833 270.032 977.667C270.102 971.433 265.953 965.129 257.615 965.129C249.244 965.129 245.162 971.433 245.162 977.7V977.7ZM249.657 977.769C249.554 973.749 251.907 969.219 257.615 969.219C263.322 969.219 265.607 973.714 265.537 977.736C265.467 981.653 263.322 985.877 257.615 985.877C251.907 985.877 249.763 981.687 249.657 977.769Z" fill="white"/>
<path d="M289.785 965.129L282.451 984.41L275.153 965.129H270.033L280.099 990H284.839L294.904 965.129H289.785Z" fill="white"/>
<path d="M305.865 965.129L294.904 990H299.896L301.991 985.31H314.764L316.823 990H321.848L310.89 965.129H305.865ZM308.376 970.352L312.914 980.939H303.84L308.376 970.352Z" fill="white"/>
<path d="M319.775 965.129V969.391H326.963V990H331.237V969.391H338.428V965.129H319.775Z" fill="white"/>
<path d="M340.501 990H346.719V965.129H340.501V990Z" fill="white"/>
<path d="M348.792 977.7C348.792 983.97 352.734 990 361.245 990C369.754 990 373.592 983.833 373.662 977.667C373.731 971.433 369.58 965.129 361.245 965.129C352.873 965.129 348.792 971.433 348.792 977.7V977.7ZM353.289 977.769C353.186 973.749 355.537 969.219 361.245 969.219C366.951 969.219 369.234 973.714 369.164 977.736C369.095 981.653 366.951 985.877 361.245 985.877C355.537 985.877 353.393 981.687 353.289 977.769Z" fill="white"/>
<path d="M393.832 965.129V980.541L381.618 965.164H377.808V989.966H382.509V973.243L395.614 990V989.966H398.534V965.129H393.832Z" fill="white"/>
<path d="M408.897 977.7C408.928 983.901 412.508 990 420.969 990C424.255 990 427.28 988.875 429.623 986.457L426.696 983.356C425.198 984.924 422.954 985.776 420.969 985.776C415.338 985.776 413.158 981.653 413.127 977.7C413.094 973.714 415.469 969.422 420.969 969.422C422.954 969.422 424.971 970.137 426.466 971.671L429.331 968.775C426.989 966.357 424.061 965.129 420.969 965.129C412.735 965.129 408.863 971.467 408.897 977.7" fill="white"/>
<path d="M431.696 977.7C431.696 983.97 435.639 990 444.149 990C452.658 990 456.5 983.833 456.566 977.667C456.636 971.433 452.486 965.129 444.149 965.129C435.778 965.129 431.696 971.433 431.696 977.7V977.7ZM436.192 977.769C436.088 973.749 438.441 969.219 444.149 969.219C449.858 969.219 452.139 973.714 452.071 977.736C452.002 981.653 449.858 985.877 444.149 985.877C438.441 985.877 436.295 981.687 436.192 977.769Z" fill="white"/>
<path d="M475.134 965.129V980.541L464.142 965.164H460.712V989.966H464.944V973.243L476.736 990V989.966H479.365V965.129H475.134Z" fill="white"/>
<path d="M483.511 977.7C483.544 983.901 487.123 990 495.583 990C498.869 990 501.894 988.875 504.237 986.457L501.308 983.356C499.811 984.924 497.568 985.776 495.583 985.776C489.953 985.776 487.773 981.653 487.74 977.7C487.709 973.714 490.083 969.422 495.583 969.422C497.568 969.422 499.585 970.137 501.08 971.671L503.945 968.775C501.603 966.357 498.674 965.129 495.583 965.129C487.35 965.129 483.478 971.467 483.511 977.7" fill="white"/>
<path d="M508.382 965.129V990H524.963V985.382H512.528V979.769H524.521V975.396H512.528V969.677H524.963V965.129H508.382Z" fill="white"/>
<path d="M529.108 965.164V990H533.771V982.691H540.763C552.874 982.691 552.84 965.129 540.763 965.129C536.88 965.129 532.994 965.164 529.108 965.164V965.164ZM533.771 969.599H540.763C546.695 969.599 546.732 978.398 540.763 978.398H533.771V969.599Z" fill="white"/>
<path d="M549.833 965.129V969.391H557.821V990H562.572V969.391H570.559V965.129H549.833Z" fill="white"/>
<path d="M572.632 990H576.778V965.129H572.632V990Z" fill="white"/>
<path d="M580.922 977.7C580.922 983.97 584.866 990 593.375 990C601.883 990 605.723 983.833 605.793 977.667C605.862 971.433 601.711 965.129 593.375 965.129C585.004 965.129 580.922 971.433 580.922 977.7V977.7ZM585.419 977.769C585.316 973.749 587.667 969.219 593.375 969.219C599.083 969.219 601.364 973.714 601.298 977.736C601.227 981.653 599.083 985.877 593.375 985.877C587.667 985.877 585.521 981.687 585.419 977.769Z" fill="white"/>
<path d="M624.361 965.129V980.541L613.368 965.164H609.939V989.966H614.168V973.243L625.964 990V989.966H628.592V965.129H624.361Z" fill="white"/>
<path d="M641.028 965.129V990H657.609V985.382H645.173V979.769H657.164V975.396H645.173V969.677H657.609V965.129H641.028Z" fill="white"/>
<path d="M679.433 965.129L672.1 984.41L664.8 965.129H659.682L669.749 990H674.486L684.553 965.129H679.433Z" fill="white"/>
<path d="M686.625 977.7C686.625 983.97 690.568 990 699.077 990C707.587 990 711.426 983.833 711.496 977.667C711.564 971.433 707.414 965.129 699.077 965.129C690.707 965.129 686.625 971.433 686.625 977.7V977.7ZM691.122 977.769C691.019 973.749 693.37 969.219 699.077 969.219C704.785 969.219 707.068 973.714 707 977.736C706.93 981.653 704.785 985.877 699.077 985.877C693.37 985.877 691.225 981.687 691.122 977.769Z" fill="white"/>
<path d="M715.642 965.129V990H732.222V985.664H720.091V965.129H715.642Z" fill="white"/>
<path d="M750.599 965.129V979.099C750.599 983.276 748.507 985.821 744.828 985.821C741.149 985.821 738.717 983.488 738.717 979.099V965.129H734.295V979.099C734.295 986.447 739.123 990 744.792 990C750.736 990 755.021 986.308 755.021 979.099V965.129H750.599Z" fill="white"/>
<path d="M757.094 965.129V969.391H765.081V990H769.831V969.391H777.82V965.129H757.094Z" fill="white"/>
<path d="M779.892 990H784.037V965.129H779.892V990Z" fill="white"/>
<path d="M788.183 977.7C788.183 983.97 792.125 990 800.635 990C809.145 990 812.985 983.833 813.053 977.667C813.123 971.433 808.971 965.129 800.635 965.129C792.266 965.129 788.183 971.433 788.183 977.7V977.7ZM792.68 977.769C792.576 973.749 794.929 969.219 800.635 969.219C806.343 969.219 808.626 973.714 808.557 977.736C808.487 981.653 806.343 985.877 800.635 985.877C794.929 985.877 792.783 981.687 792.68 977.769Z" fill="white"/>
<path d="M831.622 965.129V980.541L820.629 965.164H817.199V989.966H821.428V973.243L833.224 990V989.966H835.853V965.129H831.622Z" fill="white"/>
<path d="M243.011 617.398H182.983L183.022 932.313H243.011V617.398Z" fill="white"/>
<path d="M843.289 675.574V617.394H607.795V932.309H843.289V874.128H666.9V803.018H837.748V747.608H666.9L665.976 675.574H843.289Z" fill="white"/>
<path d="M561.155 881.974C532.422 912.667 491.542 931.847 446.182 931.847C359.221 931.847 288.725 861.351 288.725 774.389C288.725 687.428 359.221 616.932 446.182 616.932C491.072 616.932 531.575 635.717 560.258 665.855L523.361 702.752C504.158 682.327 476.891 669.572 446.644 669.572C388.5 669.572 341.364 716.707 341.364 774.851C341.364 832.996 388.5 880.131 446.644 880.131C476.892 880.131 504.16 867.375 523.363 846.948L561.155 881.974Z" fill="white"/>
<path d="M152 603.036C663.152 559.636 874.326 591.318 874.326 591.318C780.203 571.307 677.937 564.29 580.716 564.292C352.331 564.298 152 603.036 152 603.036Z" fill="white"/>
<path d="M640.911 536.004L658.51 550.561C662.633 550.759 666.758 550.942 670.882 551.162L640.184 525.391C640.412 528.928 640.656 532.467 640.911 536.004" fill="white"/>
<path d="M550.513 162.771C545.633 163.298 540.773 163.518 535.921 163.526V336.536C537.002 332.551 538.06 328.565 539.08 324.572C538.188 349.599 537.285 374.629 536.269 399.653H570.772L571.747 400.507L628.447 450.473C629.717 445.398 631.178 440.377 632.812 435.413L584.267 392.42H552.695V162.527C551.966 162.604 551.242 162.702 550.513 162.771" fill="white"/>
<path d="M488.376 431.119L502.215 446.702V498.67L515.276 512.983C510.182 491.128 511.059 468.697 514.437 446.617L497.359 427.389C494.408 428.732 491.404 429.955 488.376 431.119" fill="white"/>
<path d="M503.796 424.289L515.89 437.908C517.313 430.038 518.984 422.226 520.765 414.521C515.339 418.044 509.661 421.322 503.796 424.289" fill="white"/>
<path d="M601.578 152.296V336.961L655.152 384.471C656.534 381.839 657.93 379.22 659.346 376.617C659.906 375.614 660.49 374.619 661.056 373.622L620.973 337.024V146.563C614.515 148.509 608.058 150.449 601.578 152.296" fill="white"/>
<path d="M659.645 135.786C654.026 137.098 648.448 138.576 642.886 140.129V203.628L709.003 267.341V305.58C710.533 303.938 712.033 302.273 713.612 300.676C714.843 299.424 716.146 298.266 717.469 297.141V262.235L655.184 200.359V155.473C655.022 155.412 654.853 155.376 654.694 155.298C651.023 153.548 649.466 149.152 651.216 145.483C652.966 141.812 657.36 140.257 661.031 142.005C664.7 143.755 666.259 148.151 664.507 151.822C663.937 153.017 663.07 153.961 662.053 154.665V197.5L724.339 259.377V292.079C728.892 289.149 733.762 286.711 738.843 284.749V257.717L674.343 190.955V132.481C669.424 133.525 664.523 134.636 659.645 135.786" fill="white"/>
<path d="M640.513 461.105L711.786 523.914V553.81C717.379 554.237 722.969 554.701 728.56 555.175V521.232C726.667 520.821 724.781 520.422 722.908 520.021C722.408 518.049 721.999 516.065 721.632 514.076L645.172 446.358C643.493 451.234 641.968 456.161 640.513 461.105Z" fill="white"/>
<path d="M388.602 205.296C389.194 206.955 389.216 208.821 388.49 210.58C386.931 214.334 382.622 216.115 378.868 214.556C375.111 212.999 373.33 208.691 374.889 204.936C376.312 201.501 380.034 199.751 383.53 200.66L427.798 152.701C424.519 152.86 421.236 153.121 417.948 153.532C407.62 154.677 397.521 157.022 387.767 160.357L309.259 244.61C309.463 245.905 309.347 247.266 308.805 248.567C307.25 252.322 302.942 254.102 299.185 252.543C295.429 250.984 293.646 246.678 295.205 242.923C296.764 239.167 301.072 237.384 304.829 238.943C304.904 238.973 304.967 239.024 305.042 239.059L372.691 166.459C351.133 176.528 331.81 191.531 316.4 209.613C292.909 237.005 277.033 270.79 270.342 306.203C270.13 307.819 269.886 309.471 269.66 311.14L281.13 326.165C283.729 323.025 285.815 319.008 288.143 316.307C286.818 321.027 285.599 325.766 284.451 330.518L298.988 349.561C300.455 349.2 302.043 349.268 303.549 349.89C307.303 351.451 309.084 355.757 307.527 359.514C305.968 363.271 301.66 365.054 297.905 363.495C294.238 361.973 292.476 357.835 293.841 354.144L282.465 339.239C281.657 342.924 280.908 346.616 280.196 350.316L286.391 358.635C287.492 358.56 288.621 358.702 289.708 359.154C293.465 360.713 295.245 365.019 293.689 368.774C292.13 372.531 287.821 374.313 284.065 372.753C280.31 371.196 278.529 366.887 280.088 363.133C280.212 362.829 280.383 362.561 280.544 362.284L278.507 359.551C277.772 363.845 277.092 368.149 276.476 372.462C276.991 374.065 276.993 375.844 276.295 377.523C276.107 377.979 275.873 378.404 275.609 378.799C271.701 408.745 270.415 439.046 270.556 469.34L313.071 429.927V316.769C309.528 315.106 307.873 310.955 309.385 307.306C310.944 303.549 315.253 301.766 319.007 303.325C322.764 304.884 324.547 309.192 322.986 312.947C322.355 314.471 321.258 315.65 319.941 316.431V432.924L270.629 478.641C270.698 483.712 270.808 488.78 270.944 493.849C273.452 495.152 275.181 497.744 275.181 500.764C275.181 503.612 273.647 506.076 271.378 507.446C271.663 515.171 271.992 522.89 272.375 530.587C272.662 534.183 272.806 537.807 272.947 541.438C273.804 541.09 274.738 540.888 275.721 540.888C279.801 540.888 283.11 544.198 283.11 548.28C283.11 552.358 279.801 555.669 275.721 555.669C275.137 555.669 274.575 555.584 274.027 555.456L273.802 555.669C274.337 560.883 275.24 566.04 276.954 571.065C284.516 570.123 292.073 569.128 299.629 568.12V533.523C297.323 532.288 295.74 529.887 295.74 527.09C295.74 523.043 299.018 519.762 303.066 519.762C307.112 519.762 310.393 523.043 310.393 527.09C310.393 529.887 308.805 532.288 306.5 533.523V567.206C313.276 566.295 320.051 565.381 326.828 564.473V301.353L314.062 289.784C312.241 290.659 310.079 290.809 308.065 289.975C304.308 288.416 302.525 284.108 304.084 280.351C305.641 276.594 309.951 274.813 313.706 276.37C316.879 277.689 318.617 280.965 318.148 284.216L333.697 298.307V563.551C337.25 563.081 340.805 562.623 344.361 562.163V522.573C344.171 522.558 343.984 522.526 343.791 522.516C343.901 520.867 344.1 519.261 344.361 517.684V285.768L329.38 270.599C327.632 271.333 325.601 271.401 323.708 270.615C319.952 269.058 318.171 264.75 319.728 260.993C321.287 257.236 325.597 255.455 329.352 257.012C332.653 258.382 334.423 261.872 333.752 265.246L351.231 282.948V498.915C354.723 492.71 359.107 486.924 363.7 481.238V282.736L350.187 264.557C349.454 264.491 348.72 264.353 348.003 264.056C344.247 262.499 342.468 258.191 344.025 254.434C345.584 250.677 349.89 248.896 353.647 250.453C357.403 252.012 359.186 256.32 357.627 260.075C357.375 260.686 357.027 261.223 356.642 261.722L370.571 280.461V472.845C375.614 466.664 380.498 460.412 384.322 453.668C395.216 436.384 401.773 416.2 402.015 395.717C402.845 398.495 404.05 401.038 405.544 403.356V264.931L383.007 241.513C381.226 242.305 379.142 242.406 377.201 241.601C373.444 240.042 371.663 235.733 373.222 231.979C374.779 228.222 379.087 226.441 382.842 227.998C386.078 229.341 387.836 232.721 387.269 236.035L412.412 262.161V410.994C416.171 414.057 420.585 416.361 425.268 417.897V209.395C421.648 207.771 419.942 203.562 421.473 199.871C423.031 196.114 427.34 194.333 431.097 195.892C434.851 197.449 436.632 201.757 435.075 205.514C434.46 206.996 433.408 208.156 432.141 208.939V419.558C432.753 419.656 433.37 419.757 433.986 419.829C437.249 420.266 440.539 420.563 443.842 420.738V243.222C440.434 241.501 438.856 237.443 440.342 233.859C441.901 230.102 446.209 228.321 449.966 229.878C453.721 231.437 455.503 235.746 453.943 239.5C453.283 241.094 452.111 242.305 450.713 243.084V420.909C456.794 420.897 462.881 420.443 468.905 419.538L461.757 411.485V169.009C458.475 167.236 456.977 163.261 458.438 159.743C459.995 155.986 464.303 154.203 468.062 155.762C471.817 157.319 473.597 161.629 472.039 165.386C471.349 167.047 470.107 168.292 468.628 169.063V408.878L476.799 418.08C480.151 417.344 483.466 416.458 486.734 415.429L477.796 405.363V296.518C474.361 294.808 472.769 290.73 474.261 287.134C475.818 283.377 480.126 281.596 483.883 283.155C487.64 284.712 489.418 289.02 487.862 292.777C487.206 294.356 486.05 295.559 484.666 296.341V402.754L493.745 412.976C497.866 411.371 501.892 409.527 505.783 407.42C511.446 404.848 513.64 398.777 516.186 393.604C521.148 382.604 525.346 371.304 529.052 359.842V163.396C522.845 163.15 516.652 162.576 510.467 161.818V381.892C513.783 383.651 515.301 387.647 513.833 391.182C512.277 394.939 507.968 396.722 504.214 395.165C500.457 393.606 498.674 389.298 500.233 385.541C500.915 383.897 502.14 382.661 503.597 381.888V160.905C481.51 157.765 459.509 152.901 437.283 152.553L388.602 205.296Z" fill="white"/>
<path d="M535.991 406.521C535.281 423.634 534.475 440.745 533.604 457.853L543.417 468.901V506.373L556.771 517.265C558.615 516.343 560.825 516.164 562.881 517.019C566.638 518.576 568.418 522.884 566.859 526.639C565.303 530.396 560.994 532.176 557.238 530.62C554.099 529.317 552.372 526.096 552.787 522.882L536.547 509.638V471.51L533.091 467.619C532.79 473.293 532.523 478.967 532.198 484.641C531.215 498.756 530.688 512.996 527.995 526.918L547.738 548.551C556.464 548.451 565.191 548.429 573.917 548.451V513.926L557.154 497.95C555.542 498.477 553.751 498.481 552.062 497.781C548.307 496.222 546.525 491.914 548.084 488.157C549.64 484.402 553.949 482.622 557.706 484.181C561.2 485.628 562.948 489.456 561.926 493.007L580.788 510.983V548.478C592.931 548.553 605.073 548.748 617.21 549.058L589.388 524.545V476.968L567.427 456.448C565.797 457.002 563.978 457.014 562.26 456.304C558.505 454.745 556.723 450.437 558.282 446.68C559.84 442.923 564.147 441.142 567.901 442.699C571.373 444.14 573.121 447.921 572.145 451.452L596.258 473.987V521.439L627.919 549.336C634.313 549.534 640.707 549.776 647.099 550.041L641.623 545.51C641.635 545.649 641.641 545.785 641.655 545.923C633.391 541.237 624.748 537.28 615.779 534.191C615.889 532.872 616.017 531.558 616.131 530.243C613.414 528.291 612.281 524.675 613.618 521.451C614.361 519.661 615.741 518.336 617.377 517.591C619.391 499.218 622.237 480.951 625.778 462.826C626.063 461.243 626.38 459.67 626.706 458.095L568.178 406.521H535.991Z" fill="white"/>
<path d="M579.61 157.984C579.089 158.611 578.478 159.146 577.796 159.566V345.718L645.455 403.938C647.523 399.508 649.674 395.116 651.892 390.763L594.71 340.055V154.205C589.7 155.563 584.669 156.841 579.61 157.984" fill="white"/>
<path d="M647.688 439.41L720.279 503.697C719.604 495.127 719.932 486.478 720.862 477.886L654.994 421.21C652.387 427.204 649.948 433.274 647.688 439.41" fill="white"/>
<path d="M637.859 490.111C638.511 498.703 639.042 507.306 639.573 515.908L682.375 551.842C689.893 552.295 697.406 552.79 704.918 553.329V527.013L638.423 468.421C636.514 475.481 637.44 482.895 637.859 490.111Z" fill="white"/>
<path d="M772.075 92.2365V116.975L827.021 175.295C834.029 174.611 841.057 174.55 847.482 178.024C844.854 180.869 843.391 187.589 838.189 185.448C837.286 185.098 836.404 184.693 835.515 184.313L837.587 186.508C839.248 186.036 841.071 186.116 842.752 186.917C846.423 188.67 847.98 193.063 846.23 196.733C844.48 200.404 840.084 201.961 836.413 200.211C833.026 198.597 831.475 194.736 832.625 191.264L765.204 119.7V96.5692C761.228 99.5344 757.616 102.968 754.416 106.749V125.714L807.974 177.678C809.791 176.986 811.869 176.996 813.76 177.898C817.433 179.648 818.988 184.042 817.238 187.713C815.49 191.384 811.094 192.941 807.423 191.189C804.232 189.669 802.644 186.148 803.434 182.845L747.546 128.62V116.568C745.897 119.482 744.467 122.525 743.309 125.679C740.679 125.523 738.054 125.447 735.431 125.407V132.827L812.35 211.133C814.159 210.453 816.226 210.472 818.107 211.367C821.778 213.119 823.333 217.513 821.583 221.184C819.835 224.854 815.439 226.411 811.768 224.66C808.57 223.136 806.979 219.601 807.783 216.29L728.56 135.635V125.421C712.654 125.752 696.848 127.985 681.214 131.07V188.177L745.712 254.941V282.398C749.19 281.332 752.709 280.41 756.232 279.649C759.72 278.906 763.222 278.281 766.731 277.746V255.177L704.447 193.302V148.415C704.282 148.352 704.117 148.318 703.954 148.24C700.285 146.49 698.728 142.096 700.478 138.425C702.228 134.754 706.622 133.197 710.291 134.947C713.963 136.697 715.522 141.091 713.771 144.762C713.202 145.959 712.333 146.903 711.315 147.607V190.442L773.601 252.319V276.822C784.784 275.507 796.053 275.062 807.335 274.997V271.071C804.386 269.06 803.243 265.165 804.826 261.844C806.578 258.172 810.972 256.616 814.641 258.366C818.312 260.116 819.869 264.51 818.117 268.181C817.291 269.917 815.86 271.16 814.206 271.824V274.999C824.764 275.06 835.324 275.355 845.829 275.477C847.903 275.432 849.991 275.365 852.085 275.286V266.909L828.352 247.942C826.441 248.805 824.194 248.884 822.153 247.911C818.481 246.163 816.925 241.769 818.675 238.098C820.425 234.427 824.821 232.87 828.49 234.62C831.532 236.071 833.087 239.335 832.548 242.502L858.955 263.604V274.942C865.421 274.535 871.909 273.855 878.268 272.679L871.158 268.218V245.646L845.166 223.368C844.089 223.374 843 223.171 841.964 222.676C838.293 220.928 836.736 216.532 838.484 212.861C840.237 209.19 844.63 207.633 848.3 209.383C851.971 211.133 853.528 215.529 851.78 219.2C851.688 219.388 851.566 219.542 851.462 219.719L878.026 242.486V264.418L887.72 270.499C895.292 268.391 902.572 265.391 909.281 261.064C914.864 257.393 919.776 252.094 923.132 246.031L898.432 224.166C896.357 225.515 893.66 225.804 891.259 224.66C887.587 222.91 886.03 218.514 887.783 214.845C889.531 211.176 893.927 209.619 897.598 211.367C900.219 212.619 901.733 215.22 901.764 217.941L926.049 239.439C926.912 236.816 927.461 234.117 927.644 231.399L884.982 193.875C883.025 194.846 880.668 194.972 878.541 193.959C875.362 192.443 873.779 188.944 874.546 185.65C870.089 182.495 865.633 179.337 861.216 176.125C859.303 170.551 857.305 164.704 854.01 159.775V162.639C857.089 164.611 858.314 168.587 856.698 171.974C854.948 175.645 850.555 177.202 846.883 175.45C843.212 173.701 841.657 169.308 843.407 165.634C844.203 163.964 845.562 162.757 847.14 162.077V152.61C839.223 146.474 830.627 141.313 822.116 136.038C822.431 137.55 822.301 139.166 821.583 140.668C819.835 144.339 815.439 145.896 811.768 144.148C808.096 142.396 806.541 138.002 808.292 134.331C808.994 132.857 810.131 131.744 811.47 131.03V129.184C810.732 128.683 809.983 128.195 809.252 127.684C801.586 116.306 798.523 101.594 787.796 92.328C785.635 90.6653 783.207 89.9999 780.726 89.9999C777.798 89.9999 774.794 90.9279 772.075 92.2365V92.2365ZM743.193 188.71C739.524 186.96 737.965 182.566 739.717 178.893C741.465 175.224 745.861 173.669 749.532 175.417C753.201 177.169 754.76 181.563 753.008 185.232C752.919 185.42 752.796 185.576 752.693 185.751L779.257 208.52V230.452L791.592 238.192C793.678 236.806 796.403 236.495 798.828 237.65C802.498 239.401 804.055 243.794 802.306 247.466C800.554 251.135 796.16 252.692 792.491 250.942C789.827 249.674 788.299 247.01 788.315 244.244L772.386 234.25V211.678L746.396 189.402C746.382 189.402 746.368 189.402 746.353 189.402C745.291 189.402 744.216 189.197 743.193 188.71" fill="white"/>
<path d="M627.843 144.498V333.992L664.546 367.506C666.374 364.352 668.24 361.22 670.137 358.102L654.623 343.791V279.042C654.607 279.034 654.587 279.03 654.57 279.022C650.897 277.272 649.34 272.878 651.092 269.209C652.842 265.537 657.236 263.979 660.906 265.729C664.575 267.481 666.134 271.875 664.383 275.544C663.73 276.916 662.707 277.988 661.494 278.707V340.781L673.828 352.161C682.376 338.557 691.684 325.439 702.133 313.256V270.261L636.016 206.55V142.086C633.289 142.88 630.564 143.684 627.843 144.498" fill="white"/>
<path d="M441.434 552.751C442.421 552.684 443.408 552.631 444.395 552.566L441.312 549.58C441.352 550.639 441.393 551.695 441.434 552.751Z" fill="white"/>
<path d="M370.57 558.696L370.812 558.938C378.414 558.071 386.025 557.251 393.644 556.543C388.215 546.485 380.19 537.718 370.57 531.574V558.696Z" fill="white"/>
<path d="M432.14 506.389C434.093 510.671 435.829 515.059 437.209 519.616C439.322 526.065 440.258 532.754 440.771 539.494L453.671 551.986C458.588 551.683 463.503 551.398 468.417 551.135L443.841 526.901V440.259C439.942 440.326 436.035 440.22 432.14 439.854V506.389Z" fill="white"/>
<path d="M559.564 161.693V385.549H586.871L635.247 428.392C637.449 422.336 639.889 416.359 642.498 410.455L570.928 348.871V160.014C570.832 159.971 570.753 159.908 570.659 159.861C566.982 160.563 563.284 161.17 559.564 161.693" fill="white"/>
<path d="M762.231 558.337C765.658 558.692 769.089 559.031 772.516 559.404V552.373C771.09 545.557 769.04 538.741 763.249 534.488C762.913 534.242 762.569 534.018 762.231 533.782V558.337Z" fill="white"/>
<path d="M735.43 555.763C742.077 556.351 748.719 556.97 755.36 557.627V529.698C749.086 526.549 742.305 524.476 735.43 522.801V555.763Z" fill="white"/>
<path d="M450.712 439.935V524.028L477.72 550.655C484.881 550.309 492.045 549.999 499.212 549.733L463.753 513.612V459.562C460.309 457.856 458.712 453.774 460.206 450.172C461.764 446.417 466.073 444.634 469.83 446.193C473.584 447.75 475.367 452.058 473.808 455.815C473.155 457.39 472.001 458.593 470.623 459.372V510.799L508.523 549.411C518.534 549.09 528.548 548.854 538.561 548.689L495.342 501.334V449.309L481.397 433.606C471.403 436.899 461.101 439.123 450.712 439.935Z" fill="white"/>
<path d="M351.23 561.28C355.386 560.757 359.539 560.244 363.699 559.75V527.778C359.729 525.908 355.559 524.471 351.23 523.562V561.28Z" fill="white"/>
<path d="M677.06 378.931L732.793 429.817C734.088 426.4 735.427 422.997 736.794 419.605L682.872 369.853C680.886 372.846 678.949 375.872 677.06 378.931" fill="white"/>
<path d="M667.493 395.418L726.627 447.854C727.734 444.134 728.945 440.446 730.239 436.787L673.421 384.912C671.384 388.376 669.406 391.877 667.493 395.418Z" fill="white"/>
<path d="M657.896 414.641L721.914 469.727C722.53 465.573 723.253 461.446 724.044 457.354C724.213 456.643 724.413 455.941 724.592 455.235L664.227 401.704C662.033 405.973 659.904 410.278 657.896 414.641" fill="white"/>
<path d="M412.412 452.657V471.479C416.661 478.69 421.144 485.79 425.267 493.064V438.959C423.12 438.604 420.975 438.185 418.84 437.685C417.208 442.894 415.029 447.884 412.412 452.657" fill="white"/>
<path d="M271.453 330.803C273.028 331.033 274.434 330.86 275.712 330.394L269.017 321.62C269.206 324.801 269.886 327.907 271.453 330.803" fill="white"/>
<path d="M745.712 304.589V362.356C745.796 362.392 745.881 362.408 745.965 362.445C749.634 364.195 751.191 368.589 749.44 372.26C747.692 375.932 743.297 377.489 739.625 375.738C735.954 373.988 734.399 369.594 736.149 365.923C736.764 364.633 737.718 363.619 738.844 362.903V307.805C735.054 309.878 731.509 312.39 728.353 315.522C726.991 316.812 725.677 318.151 724.34 319.466V326.465C724.484 326.522 724.635 326.554 724.779 326.623C728.452 328.371 730.007 332.765 728.257 336.437C726.507 340.108 722.113 341.667 718.442 339.915C714.773 338.164 713.216 333.771 714.964 330.099C715.546 328.882 716.431 327.926 717.469 327.216V326.434C714.583 329.462 711.763 332.545 709.003 335.688V355.351C709.027 355.361 709.054 355.365 709.08 355.377C712.75 357.127 714.306 361.521 712.558 365.192C710.806 368.864 706.412 370.421 702.743 368.67C699.07 366.92 697.513 362.527 699.263 358.853C699.912 357.492 700.928 356.427 702.133 355.709V343.775C696.744 350.344 691.615 357.123 686.77 364.102L739.556 412.806C740.761 409.855 741.968 406.904 743.162 403.949C742.613 402.225 742.674 400.306 743.514 398.544C744.198 397.107 745.293 396.01 746.589 395.292C750.623 384.862 754.274 374.3 756.746 363.343C760.977 345.59 762.015 327.146 766.731 309.526V298.897C759.64 300.265 752.436 301.925 745.712 304.589" fill="white"/>
</svg>
