<svg width="1080" height="1080" viewBox="0 0 1080 1080" fill="none" xmlns="http://www.w3.org/2000/svg">
<path d="M119.642 1080H124.616V1050.15H119.642V1080Z" fill="white"/>
<path d="M148.818 1050.15V1068.65L134.163 1050.2H129.59V1079.96H135.229V1059.89L150.955 1080V1079.96H154.461V1050.15H148.818Z" fill="white"/>
<path d="M178.665 1050.15V1068.65L164.009 1050.2H159.436V1079.96H165.076V1059.89L180.801 1080V1079.96H184.307V1050.15H178.665Z" fill="white"/>
<path d="M186.794 1065.24C186.794 1072.76 191.525 1080 201.738 1080C211.949 1080 216.559 1072.6 216.638 1065.2C216.722 1057.72 211.744 1050.15 201.738 1050.15C191.692 1050.15 186.794 1057.72 186.794 1065.24V1065.24ZM192.188 1065.32C192.065 1060.5 194.888 1055.06 201.738 1055.06C208.586 1055.06 211.328 1060.46 211.244 1065.28C211.161 1069.98 208.586 1075.05 201.738 1075.05C194.888 1075.05 192.315 1070.02 192.188 1065.32Z" fill="white"/>
<path d="M240.341 1050.15L231.541 1073.29L222.783 1050.15H216.64L228.718 1080H234.406L246.485 1050.15H240.341Z" fill="white"/>
<path d="M259.638 1050.15L246.485 1080H252.474L254.989 1074.37H270.317L272.788 1080H278.817L265.668 1050.15H259.638ZM262.651 1056.42L268.097 1069.13H257.207L262.651 1056.42Z" fill="white"/>
<path d="M276.33 1050.15V1055.27H284.956V1080H290.085V1055.27H298.714V1050.15H276.33Z" fill="white"/>
<path d="M301.201 1080H308.663V1050.15H301.201V1080Z" fill="white"/>
<path d="M311.15 1065.24C311.15 1072.76 315.881 1080 326.094 1080C336.305 1080 340.911 1072.6 340.994 1065.2C341.078 1057.72 336.096 1050.15 326.094 1050.15C316.048 1050.15 311.15 1057.72 311.15 1065.24V1065.24ZM316.547 1065.32C316.424 1060.5 319.245 1055.06 326.094 1055.06C332.941 1055.06 335.681 1060.46 335.597 1065.28C335.514 1069.98 332.941 1075.05 326.094 1075.05C319.245 1075.05 316.672 1070.02 316.547 1065.32Z" fill="white"/>
<path d="M365.198 1050.15V1068.65L350.541 1050.2H345.97V1079.96H351.61V1059.89L367.336 1080V1079.96H370.841V1050.15H365.198Z" fill="white"/>
<path d="M383.277 1065.24C383.314 1072.68 387.609 1080 397.762 1080C401.706 1080 405.336 1078.65 408.148 1075.75L404.635 1072.03C402.838 1073.91 400.145 1074.93 397.762 1074.93C391.006 1074.93 388.39 1069.98 388.352 1065.24C388.313 1060.46 391.163 1055.31 397.762 1055.31C400.145 1055.31 402.565 1056.16 404.36 1058.01L407.798 1054.53C404.986 1051.63 401.474 1050.15 397.762 1050.15C387.883 1050.15 383.236 1057.76 383.277 1065.24" fill="white"/>
<path d="M410.635 1065.24C410.635 1072.76 415.366 1080 425.579 1080C435.79 1080 440.399 1072.6 440.479 1065.2C440.563 1057.72 435.583 1050.15 425.579 1050.15C415.533 1050.15 410.635 1057.72 410.635 1065.24V1065.24ZM416.031 1065.32C415.905 1060.5 418.729 1055.06 425.579 1055.06C432.429 1055.06 435.167 1060.46 435.085 1065.28C435.002 1069.98 432.429 1075.05 425.579 1075.05C418.729 1075.05 416.154 1070.02 416.031 1065.32Z" fill="white"/>
<path d="M462.76 1050.15V1068.65L449.57 1050.2H445.454V1079.96H450.532V1059.89L464.683 1080V1079.96H467.838V1050.15H462.76Z" fill="white"/>
<path d="M472.813 1065.24C472.853 1072.68 477.147 1080 487.3 1080C491.243 1080 494.873 1078.65 497.684 1075.75L494.17 1072.03C492.373 1073.91 489.682 1074.93 487.3 1074.93C480.544 1074.93 477.928 1069.98 477.888 1065.24C477.851 1060.46 480.699 1055.31 487.3 1055.31C489.682 1055.31 492.102 1056.16 493.896 1058.01L497.334 1054.53C494.523 1051.63 491.009 1050.15 487.3 1050.15C477.421 1050.15 472.774 1057.76 472.813 1065.24" fill="white"/>
<path d="M502.658 1050.15V1080H522.555V1074.46H507.634V1067.72H522.025V1062.47H507.634V1055.61H522.555V1050.15H502.658Z" fill="white"/>
<path d="M527.529 1050.2V1080H533.125V1071.23H541.516C556.049 1071.23 556.008 1050.15 541.516 1050.15C536.856 1050.15 532.193 1050.2 527.529 1050.2V1050.2ZM533.125 1055.52H541.516C548.633 1055.52 548.678 1066.08 541.516 1066.08H533.125V1055.52Z" fill="white"/>
<path d="M552.4 1050.15V1055.27H561.985V1080H567.687V1055.27H577.272V1050.15H552.4Z" fill="white"/>
<path d="M579.759 1080H584.733V1050.15H579.759V1080Z" fill="white"/>
<path d="M589.707 1065.24C589.707 1072.76 594.44 1080 604.65 1080C614.86 1080 619.468 1072.6 619.551 1065.2C619.635 1057.72 614.653 1050.15 604.65 1050.15C594.605 1050.15 589.707 1057.72 589.707 1065.24V1065.24ZM595.103 1065.32C594.979 1060.5 597.8 1055.06 604.65 1055.06C611.5 1055.06 614.238 1060.46 614.158 1065.28C614.072 1069.98 611.5 1075.05 604.65 1075.05C597.8 1075.05 595.226 1070.02 595.103 1065.32Z" fill="white"/>
<path d="M641.834 1050.15V1068.65L628.642 1050.2H624.527V1079.96H629.602V1059.89L643.757 1080V1079.96H646.911V1050.15H641.834Z" fill="white"/>
<path d="M661.833 1050.15V1080H681.73V1074.46H666.807V1067.72H681.197V1062.47H666.807V1055.61H681.73V1050.15H661.833Z" fill="white"/>
<path d="M707.92 1050.15L699.12 1073.29L690.36 1050.15H684.218L696.299 1080H701.983L714.064 1050.15H707.92Z" fill="white"/>
<path d="M716.551 1065.24C716.551 1072.76 721.282 1080 731.492 1080C741.704 1080 746.312 1072.6 746.395 1065.2C746.477 1057.72 741.497 1050.15 731.492 1050.15C721.449 1050.15 716.551 1057.72 716.551 1065.24V1065.24ZM721.946 1065.32C721.823 1060.5 724.644 1055.06 731.492 1055.06C738.342 1055.06 741.081 1060.46 741 1065.28C740.916 1069.98 738.342 1075.05 731.492 1075.05C724.644 1075.05 722.07 1070.02 721.946 1065.32Z" fill="white"/>
<path d="M751.37 1050.15V1080H771.267V1074.8H756.71V1050.15H751.37Z" fill="white"/>
<path d="M793.319 1050.15V1066.92C793.319 1071.93 790.808 1074.98 786.393 1074.98C781.978 1074.98 779.06 1072.19 779.06 1066.92V1050.15H773.754V1066.92C773.754 1075.74 779.547 1080 786.351 1080C793.484 1080 798.625 1075.57 798.625 1066.92V1050.15H793.319Z" fill="white"/>
<path d="M801.112 1050.15V1055.27H810.697V1080H816.397V1055.27H825.983V1050.15H801.112Z" fill="white"/>
<path d="M828.471 1080H833.445V1050.15H828.471V1080Z" fill="white"/>
<path d="M838.419 1065.24C838.419 1072.76 843.15 1080 853.362 1080C863.574 1080 868.182 1072.6 868.263 1065.2C868.347 1057.72 863.365 1050.15 853.362 1050.15C843.319 1050.15 838.419 1057.72 838.419 1065.24V1065.24ZM843.816 1065.32C843.691 1060.5 846.514 1055.06 853.362 1055.06C860.212 1055.06 862.951 1060.46 862.868 1065.28C862.784 1069.98 860.212 1075.05 853.362 1075.05C846.514 1075.05 843.94 1070.02 843.816 1065.32Z" fill="white"/>
<path d="M890.546 1050.15V1068.65L877.355 1050.2H873.239V1079.96H878.314V1059.89L892.469 1080V1079.96H895.623V1050.15H890.546Z" fill="white"/>
<path d="M184.214 632.877H112.18L112.227 1010.78H184.214V632.877Z" fill="white"/>
<path d="M904.547 702.689V632.872H621.955V1010.77H904.547V940.954H692.88V855.622H897.898V789.129H692.88L691.772 702.689H904.547Z" fill="white"/>
<path d="M565.986 950.369C531.507 987.2 482.451 1010.22 428.019 1010.22C323.665 1010.22 239.07 925.621 239.07 821.268C239.07 716.914 323.665 632.319 428.019 632.319C481.887 632.319 530.49 654.86 564.91 691.026L520.634 735.302C497.59 710.792 464.869 695.486 428.573 695.486C358.8 695.486 302.238 752.049 302.238 821.822C302.238 891.595 358.8 948.157 428.573 948.157C464.871 948.157 497.593 932.85 520.636 908.338L565.986 950.369Z" fill="white"/>
<path d="M75 615.644C688.382 563.563 941.791 601.582 941.791 601.582C828.843 577.568 706.124 569.148 589.459 569.15C315.397 569.158 75 615.644 75 615.644Z" fill="white"/>
<path d="M661.693 535.205L682.812 552.673C687.76 552.91 692.71 553.13 697.658 553.394L660.821 522.469C661.094 526.714 661.387 530.961 661.693 535.205" fill="white"/>
<path d="M553.216 87.3254C547.359 87.9579 541.528 88.2216 535.706 88.2314V295.843C537.002 291.062 538.272 286.278 539.496 281.486C538.426 311.519 537.342 341.555 536.123 371.583H577.527L578.697 372.609L646.737 432.568C648.26 426.477 650.014 420.453 651.975 414.496L593.721 362.904H555.834V87.0324C554.959 87.1252 554.09 87.2424 553.216 87.3254" fill="white"/>
<path d="M478.651 409.343L495.258 428.042V490.404L510.931 507.58C504.819 481.354 505.871 454.437 509.925 427.94L489.431 404.867C485.89 406.478 482.285 407.946 478.651 409.343" fill="white"/>
<path d="M497.155 401.147L511.668 417.49C513.375 408.046 515.38 398.671 517.517 389.425C511.007 393.652 504.193 397.587 497.155 401.147" fill="white"/>
<path d="M614.494 74.7559V296.354L678.782 353.365C680.441 350.207 682.116 347.064 683.816 343.941C684.487 342.737 685.188 341.543 685.867 340.346L637.767 296.43V67.8764C630.018 70.2111 622.269 72.5385 614.494 74.7559" fill="white"/>
<path d="M684.174 54.9426C677.432 56.5178 670.738 58.2908 664.063 60.1542V136.353L743.403 212.809V258.696C745.24 256.725 747.039 254.728 748.934 252.811C750.412 251.309 751.975 249.919 753.562 248.569V206.681L678.821 132.431V78.5677C678.626 78.4945 678.423 78.4505 678.233 78.3577C673.827 76.2575 671.959 70.9825 674.059 66.5794C676.159 62.1738 681.432 60.308 685.837 62.4058C690.241 64.506 692.111 69.781 690.009 74.1865C689.325 75.6201 688.284 76.7533 687.063 77.5983V129L761.807 203.253V242.495C767.27 238.978 773.114 236.053 779.212 233.699V201.26L701.811 121.146V50.9767C695.909 52.2295 690.028 53.5628 684.174 54.9426" fill="white"/>
<path d="M661.216 445.325L746.744 520.697V556.571C753.455 557.084 760.163 557.641 766.872 558.21V517.478C764.601 516.985 762.337 516.506 760.09 516.025C759.489 513.658 758.998 511.277 758.559 508.891L666.806 427.63C664.791 433.481 662.962 439.394 661.216 445.325Z" fill="white"/>
<path d="M358.922 138.356C359.632 140.346 359.659 142.586 358.787 144.696C356.917 149.201 351.747 151.338 347.241 149.467C342.733 147.599 340.596 142.429 342.467 137.924C344.174 133.801 348.64 131.701 352.836 132.793L405.957 75.2417C402.023 75.4322 398.083 75.7448 394.137 76.2381C381.743 77.613 369.625 80.4264 357.92 84.429L263.711 185.533C263.955 187.086 263.816 188.72 263.166 190.28C261.3 194.786 256.13 196.923 251.622 195.052C247.114 193.181 244.975 188.014 246.845 183.508C248.716 179 253.886 176.861 258.394 178.731C258.485 178.768 258.56 178.829 258.651 178.871L339.829 91.7504C313.96 103.834 290.772 121.837 272.28 143.536C244.091 176.407 225.04 216.948 217.01 259.443C216.756 261.383 216.463 263.366 216.192 265.368L229.956 283.398C233.074 279.63 235.577 274.809 238.371 271.569C236.781 277.232 235.319 282.92 233.941 288.622L251.385 311.473C253.146 311.041 255.051 311.121 256.858 311.868C261.364 313.742 263.501 318.909 261.632 323.417C259.762 327.925 254.592 330.065 250.086 328.194C245.685 326.367 243.571 321.403 245.209 316.973L231.558 299.086C230.588 303.509 229.689 307.939 228.835 312.379L236.269 322.362C237.59 322.272 238.945 322.443 240.249 322.985C244.757 324.856 246.894 330.023 245.026 334.529C243.155 339.037 237.985 341.176 233.477 339.303C228.972 337.435 226.835 332.265 228.705 327.759C228.854 327.395 229.059 327.073 229.252 326.741L226.808 323.461C225.926 328.614 225.111 333.779 224.371 338.954C224.988 340.878 224.991 343.013 224.153 345.028C223.929 345.575 223.648 346.085 223.33 346.559C218.641 382.495 217.098 418.855 217.266 455.209L268.285 407.912V272.123C264.033 270.128 262.048 265.146 263.862 260.767C265.733 256.259 270.903 254.12 275.408 255.99C279.917 257.861 282.056 263.031 280.183 267.537C279.426 269.366 278.109 270.78 276.529 271.718V411.509L217.354 466.369C217.437 472.455 217.569 478.536 217.733 484.619C220.742 486.182 222.817 489.293 222.817 492.917C222.817 496.334 220.976 499.291 218.253 500.935C218.595 510.205 218.991 519.468 219.45 528.704C219.794 533.019 219.967 537.369 220.136 541.726C221.164 541.308 222.285 541.066 223.465 541.066C228.361 541.066 232.332 545.037 232.332 549.936C232.332 554.83 228.361 558.803 223.465 558.803C222.764 558.803 222.09 558.701 221.433 558.547L221.162 558.803C221.804 565.06 222.888 571.248 224.944 577.278C234.019 576.147 243.087 574.953 252.155 573.744V532.228C249.388 530.746 247.488 527.864 247.488 524.509C247.488 519.651 251.422 515.715 256.279 515.715C261.134 515.715 265.071 519.651 265.071 524.509C265.071 527.864 263.166 530.746 260.399 532.228V572.648C268.531 571.554 276.661 570.457 284.793 569.368V253.624L269.474 239.74C267.288 240.791 264.695 240.971 262.277 239.97C257.769 238.099 255.63 232.929 257.5 228.421C259.369 223.913 264.541 221.776 269.047 223.644C272.854 225.227 274.94 229.159 274.378 233.059L293.036 249.968V568.262C297.3 567.698 301.566 567.148 305.832 566.596V519.087C305.605 519.07 305.381 519.031 305.149 519.019C305.28 517.041 305.52 515.114 305.832 513.221V234.922L287.856 216.719C285.758 217.6 283.321 217.681 281.05 216.738C276.542 214.87 274.405 209.7 276.273 205.192C278.144 200.684 283.316 198.547 287.822 200.415C291.783 202.058 293.907 206.247 293.102 210.296L314.077 231.537V490.698C318.268 483.252 323.528 476.309 329.04 469.485V231.283L312.824 209.468C311.945 209.39 311.063 209.224 310.204 208.867C305.696 206.999 303.561 201.829 305.429 197.321C307.3 192.813 312.468 190.676 316.976 192.544C321.484 194.415 323.623 199.585 321.753 204.09C321.45 204.823 321.032 205.468 320.571 206.066L337.284 228.553V459.414C343.336 451.997 349.197 444.495 353.786 436.402C366.858 415.661 374.727 391.44 375.018 366.86C376.014 370.194 377.46 373.246 379.252 376.028V209.917L352.208 181.816C350.071 182.766 347.571 182.888 345.241 181.921C340.733 180.05 338.596 174.88 340.466 170.375C342.335 165.866 347.505 163.73 352.01 165.598C355.893 167.21 358.003 171.266 357.322 175.242L387.494 206.594V385.193C392.005 388.869 397.302 391.633 402.921 393.477V143.274C398.577 141.325 396.53 136.275 398.367 131.845C400.237 127.337 405.407 125.2 409.916 127.071C414.421 128.939 416.558 134.109 414.69 138.617C413.952 140.395 412.69 141.787 411.168 142.727V395.47C411.903 395.587 412.643 395.709 413.383 395.794C417.298 396.319 421.247 396.676 425.211 396.886V183.867C421.12 181.801 419.227 176.932 421.01 172.631C422.881 168.123 428.051 165.986 432.559 167.854C437.065 169.725 439.204 174.895 437.331 179.401C436.539 181.313 435.133 182.766 433.455 183.701V397.091C440.752 397.076 448.057 396.532 455.285 395.445L446.709 385.782V94.8104C442.769 92.6833 440.972 87.9139 442.725 83.6915C444.594 79.1833 449.764 77.044 454.274 78.9147C458.78 80.7829 460.917 85.9552 459.046 90.4633C458.218 92.4561 456.728 93.9507 454.953 94.8763V382.653L464.758 393.697C468.78 392.813 472.759 391.75 476.681 390.514L465.955 378.436V247.821C461.833 245.77 459.923 240.876 461.713 236.561C463.581 232.053 468.751 229.916 473.259 231.786C477.767 233.655 479.902 238.825 478.034 243.333C477.247 245.228 475.86 246.671 474.199 247.609V375.305L485.094 387.572C490.039 385.645 494.87 383.432 499.539 380.905C506.335 377.818 508.968 370.533 512.023 364.325C517.977 351.126 523.015 337.564 527.462 323.81V88.075C520.014 87.7795 512.582 87.0908 505.161 86.1823V350.271C509.139 352.381 510.961 357.177 509.2 361.419C507.332 365.927 502.162 368.066 497.656 366.198C493.148 364.328 491.009 359.158 492.879 354.649C493.697 352.676 495.167 351.194 496.916 350.266V85.0859C470.412 81.3177 444.01 75.481 417.34 75.0634L358.922 138.356Z" fill="white"/>
<path d="M535.789 379.825C534.937 400.361 533.97 420.895 532.924 441.423L544.7 454.681V499.648L560.725 512.718C562.938 511.612 565.59 511.397 568.057 512.423C572.565 514.291 574.702 519.461 572.831 523.967C570.963 528.475 565.793 530.612 561.285 528.743C557.519 527.181 555.446 523.315 555.944 519.459L536.456 503.565V457.812L532.309 453.143C531.947 459.951 531.628 466.76 531.237 473.569C530.057 490.507 529.425 507.595 526.194 524.301L549.885 550.261C560.357 550.141 570.828 550.114 581.3 550.141V508.711L561.185 489.54C559.25 490.173 557.101 490.177 555.074 489.337C550.569 487.467 548.429 482.297 550.3 477.789C552.168 473.283 557.338 471.146 561.846 473.017C566.039 474.753 568.137 479.347 566.911 483.608L589.545 505.179V550.173C604.117 550.263 618.687 550.498 633.252 550.869L599.865 521.454V464.362L573.512 439.738C571.556 440.402 569.373 440.417 567.312 439.565C562.806 437.694 560.667 432.524 562.538 428.016C564.408 423.508 569.576 421.371 574.081 423.239C578.248 424.968 580.345 429.506 579.173 433.743L608.11 460.784V517.727L646.102 551.204C653.775 551.441 661.448 551.731 669.119 552.049L662.547 546.612C662.562 546.779 662.569 546.942 662.586 547.108C652.669 541.484 642.297 536.736 631.535 533.029C631.667 531.447 631.82 529.869 631.957 528.292C628.697 525.95 627.337 521.61 628.941 517.742C629.833 515.593 631.488 514.003 633.452 513.109C635.869 491.062 639.284 469.141 643.533 447.392C643.875 445.492 644.256 443.604 644.646 441.714L574.414 379.825H535.789Z" fill="white"/>
<path d="M588.131 81.5815C587.506 82.3336 586.774 82.9759 585.956 83.4789V306.862L667.146 376.726C669.627 371.41 672.209 366.14 674.871 360.916L606.252 300.066V77.0465C600.24 78.6753 594.203 80.209 588.131 81.5815" fill="white"/>
<path d="M669.825 419.292L756.936 496.436C756.125 486.153 756.518 475.774 757.634 465.463L678.592 397.452C675.464 404.644 672.538 411.929 669.825 419.292" fill="white"/>
<path d="M658.031 480.133C658.813 490.444 659.45 500.767 660.088 511.089L711.45 554.21C720.472 554.754 729.488 555.348 738.502 555.995V524.416L658.708 454.105C656.417 462.577 657.528 471.473 658.031 480.133Z" fill="white"/>
<path d="M819.09 2.68388V32.3703L885.025 102.354C893.435 101.534 901.868 101.46 909.578 105.629C906.425 109.043 904.669 117.107 898.427 114.538C897.343 114.118 896.285 113.632 895.218 113.175L897.704 115.81C899.697 115.244 901.885 115.339 903.902 116.301C908.308 118.404 910.176 123.676 908.076 128.079C905.976 132.485 900.701 134.353 896.295 132.253C892.232 130.316 890.371 125.684 891.75 121.517L810.845 35.6403V7.88323C806.073 11.4414 801.739 15.5611 797.9 20.0986V42.8568L862.169 105.214C864.35 104.384 866.843 104.396 869.112 105.478C873.52 107.578 875.386 112.85 873.285 117.256C871.188 121.661 865.913 123.53 861.507 121.427C857.678 119.603 855.773 115.378 856.721 111.414L789.655 46.3441V31.8819C787.677 35.379 785.96 39.0299 784.571 42.8152C781.415 42.6272 778.265 42.5369 775.117 42.488V51.392L867.419 145.36C869.591 144.544 872.072 144.566 874.328 145.641C878.734 147.743 880.6 153.016 878.499 157.421C876.402 161.825 871.127 163.693 866.721 161.593C862.884 159.764 860.975 155.521 861.939 151.548L766.873 54.7621V42.505C747.785 42.9031 728.817 45.5821 710.057 49.2843V117.813L787.455 197.929V230.878C791.628 229.598 795.851 228.492 800.078 227.579C804.264 226.687 808.467 225.938 812.677 225.295V198.212L737.936 123.962V70.0986C737.738 70.0229 737.54 69.9813 737.345 69.8885C732.942 67.7883 731.073 62.5158 733.174 58.1102C735.274 53.7046 740.546 51.8364 744.95 53.9367C749.355 56.0369 751.226 61.3094 749.126 65.715C748.442 67.151 747.399 68.2841 746.178 69.1291V120.531L820.921 194.784V224.187C834.341 222.609 847.863 222.074 861.402 221.996V217.285C857.863 214.872 856.491 210.198 858.391 206.213C860.494 201.807 865.766 199.939 870.169 202.039C874.575 204.139 876.443 209.412 874.34 213.817C873.349 215.901 871.632 217.393 869.647 218.189V221.998C882.316 222.072 894.989 222.426 907.595 222.572C910.083 222.519 912.589 222.438 915.102 222.343V212.291L886.622 189.531C884.329 190.566 881.633 190.661 879.183 189.494C874.778 187.396 872.909 182.123 875.01 177.718C877.11 173.312 882.385 171.444 886.788 173.544C890.439 175.286 892.305 179.203 891.657 183.003L923.346 208.325V221.93C931.105 221.442 938.891 220.626 946.522 219.214L937.99 213.861V186.776L906.799 160.042C905.507 160.049 904.2 159.805 902.957 159.211C898.552 157.114 896.683 151.839 898.781 147.433C900.884 143.028 906.156 141.159 910.559 143.26C914.965 145.36 916.833 150.635 914.736 155.04C914.626 155.265 914.479 155.451 914.355 155.663L946.232 182.983V209.302L957.863 216.599C966.951 214.069 975.686 210.469 983.738 205.277C990.436 200.872 996.332 194.512 1000.36 187.237L970.719 160.999C968.228 162.618 964.992 162.965 962.11 161.593C957.705 159.492 955.836 154.217 957.939 149.814C960.037 145.411 965.312 143.543 969.717 145.641C972.863 147.143 974.68 150.264 974.717 153.529L1003.86 179.327C1004.89 176.179 1005.55 172.941 1005.77 169.678L954.579 124.651C952.229 125.816 949.402 125.967 946.85 124.751C943.035 122.931 941.135 118.733 942.056 114.78C936.707 110.994 931.359 107.204 926.06 103.351C923.764 96.6616 921.366 89.6454 917.412 83.7306V87.1666C921.107 89.533 922.577 94.3048 920.638 98.3685C918.538 102.774 913.265 104.642 908.86 102.54C904.454 100.442 902.588 95.1694 904.689 90.7613C905.644 88.7564 907.275 87.3082 909.168 86.4925V75.1319C899.668 67.7689 889.352 61.5756 879.139 55.2457C879.518 57.0602 879.361 58.9991 878.499 60.8014C876.402 65.207 871.127 67.0753 866.721 64.9775C862.315 62.8748 860.45 57.6023 862.55 53.1967C863.392 51.4287 864.758 50.0928 866.364 49.2356V47.0205C865.478 46.4197 864.579 45.8336 863.703 45.2207C854.503 31.5668 850.828 13.9127 837.955 2.79374C835.362 0.798526 832.448 -2.78812e-06 829.471 -2.78812e-06C825.957 -2.78812e-06 822.353 1.1136 819.09 2.68388V2.68388ZM784.431 118.453C780.028 116.352 778.158 111.08 780.26 106.672C782.358 102.269 787.633 100.403 792.039 102.501C796.442 104.603 798.312 109.876 796.21 114.279C796.102 114.504 795.956 114.692 795.831 114.902L827.708 142.224V168.543L842.51 177.83C845.013 176.167 848.283 175.794 851.194 177.181C855.597 179.281 857.465 184.553 855.368 188.959C853.265 193.362 847.992 195.23 843.589 193.13C840.393 191.609 838.559 188.412 838.578 185.093L819.464 173.1V146.014L788.275 119.283C788.258 119.283 788.241 119.283 788.224 119.283C786.949 119.283 785.66 119.036 784.431 118.453" fill="white"/>
<path d="M646.012 65.3974V292.791L690.055 333.007C692.248 329.222 694.488 325.464 696.764 321.722L678.148 304.549V226.851C678.128 226.841 678.104 226.836 678.084 226.826C673.676 224.726 671.808 219.454 673.91 215.051C676.011 210.645 681.283 208.774 685.686 210.875C690.09 212.977 691.96 218.25 689.86 222.653C689.076 224.299 687.848 225.586 686.392 226.448V300.937L701.194 314.594C711.451 298.268 722.621 282.526 735.159 267.908V216.313L655.819 139.86V62.5035C652.547 63.4559 649.277 64.4206 646.012 65.3974" fill="white"/>
<path d="M422.32 555.301C423.505 555.221 424.689 555.157 425.874 555.079L422.174 551.496C422.223 552.766 422.272 554.034 422.32 555.301Z" fill="white"/>
<path d="M337.284 562.435L337.575 562.725C346.696 561.685 355.83 560.701 364.973 559.851C358.457 547.782 348.828 537.262 337.284 529.889V562.435Z" fill="white"/>
<path d="M411.167 499.667C413.512 504.806 415.595 510.071 417.251 515.539C419.786 523.278 420.909 531.305 421.525 539.393L437.005 554.383C442.905 554.019 448.803 553.677 454.701 553.362L425.21 524.281V420.311C420.531 420.391 415.842 420.264 411.167 419.825V499.667Z" fill="white"/>
<path d="M564.077 86.031V354.659H596.845L654.897 406.071C657.539 398.803 660.467 391.63 663.598 384.546L577.713 310.645V84.0162C577.599 83.9649 577.503 83.8892 577.391 83.833C572.978 84.6755 568.541 85.4034 564.077 86.031" fill="white"/>
<path d="M807.277 562.005C811.39 562.43 815.507 562.838 819.62 563.285V554.847C817.908 546.668 815.449 538.49 808.498 533.386C808.095 533.09 807.683 532.822 807.277 532.538V562.005Z" fill="white"/>
<path d="M775.116 558.916C783.092 559.621 791.063 560.364 799.032 561.153V527.637C791.503 523.859 783.366 521.371 775.116 519.361V558.916Z" fill="white"/>
<path d="M433.454 419.922V520.833L465.863 552.786C474.457 552.371 483.054 552 491.655 551.68L449.103 508.334V443.474C444.971 441.428 443.054 436.529 444.847 432.206C446.717 427.701 451.887 425.561 456.395 427.432C460.901 429.3 463.04 434.47 461.17 438.978C460.386 440.868 459.001 442.312 457.348 443.247V504.959L502.827 551.294C514.84 550.908 526.858 550.625 538.873 550.427L487.01 493.601V431.171L470.276 412.327C458.283 416.279 445.921 418.948 433.454 419.922Z" fill="white"/>
<path d="M314.076 565.536C319.063 564.909 324.047 564.293 329.039 563.7V525.334C324.274 523.09 319.271 521.366 314.076 520.274V565.536Z" fill="white"/>
<path d="M705.072 346.718L771.952 407.78C773.505 403.68 775.112 399.597 776.753 395.526L712.047 335.823C709.663 339.416 707.339 343.047 705.072 346.718" fill="white"/>
<path d="M693.592 366.501L764.552 429.425C765.881 424.961 767.334 420.535 768.887 416.145L700.706 353.895C698.261 358.051 695.887 362.252 693.592 366.501Z" fill="white"/>
<path d="M682.075 389.569L758.896 455.673C759.636 450.688 760.503 445.736 761.453 440.824C761.656 439.972 761.895 439.13 762.11 438.282L689.672 374.045C687.04 379.168 684.485 384.333 682.075 389.569" fill="white"/>
<path d="M387.494 435.188V457.775C392.593 466.428 397.973 474.948 402.92 483.676V418.75C400.344 418.325 397.77 417.822 395.208 417.221C393.25 423.473 390.634 429.461 387.494 435.188" fill="white"/>
<path d="M218.343 288.964C220.233 289.24 221.921 289.032 223.454 288.473L215.42 277.945C215.647 281.762 216.463 285.489 218.343 288.964" fill="white"/>
<path d="M787.454 257.507V326.827C787.554 326.871 787.657 326.89 787.757 326.934C792.16 329.034 794.028 334.307 791.928 338.712C789.83 343.118 784.556 344.986 780.15 342.886C775.744 340.786 773.879 335.513 775.979 331.108C776.716 329.559 777.862 328.343 779.212 327.483V261.366C774.665 263.854 770.411 266.868 766.623 270.626C764.989 272.174 763.412 273.781 761.807 275.359V283.757C761.981 283.826 762.161 283.865 762.335 283.948C766.743 286.046 768.608 291.318 766.508 295.724C764.408 300.129 759.135 302 754.73 299.897C750.327 297.797 748.459 292.525 750.556 288.119C751.255 286.659 752.317 285.511 753.563 284.659V283.721C750.1 287.355 746.715 291.054 743.403 294.825V318.421C743.433 318.433 743.464 318.438 743.496 318.453C747.899 320.553 749.767 325.825 747.67 330.231C745.567 334.636 740.294 336.505 735.891 334.404C731.483 332.304 729.615 327.032 731.715 322.624C732.494 320.99 733.713 319.713 735.159 318.851V304.53C728.692 312.413 722.538 320.548 716.723 328.922L780.067 387.367C781.513 383.826 782.961 380.285 784.394 376.739C783.735 374.67 783.808 372.367 784.817 370.252C785.637 368.528 786.951 367.212 788.507 366.35C793.347 353.834 797.728 341.159 800.695 328.011C805.773 306.708 807.018 284.575 812.677 263.432V250.676C804.168 252.317 795.523 254.31 787.454 257.507" fill="white"/>
</svg>
