<svg width="1500" height="500" viewBox="0 0 1500 500" fill="none" xmlns="http://www.w3.org/2000/svg">
<g clip-path="url(#clip0_1616_9212)">
<path d="M-72 500C426.37 457.702 632.263 488.58 632.263 488.58C540.494 469.077 440.785 462.238 345.996 462.24C123.322 462.246 -72 500 -72 500Z" fill="white"/>
<path d="M404.684 434.671L421.844 448.858C425.864 449.051 429.886 449.229 433.906 449.443L403.976 424.328C404.198 427.775 404.436 431.224 404.684 434.671" fill="white"/>
<path d="M316.548 70.9222C311.789 71.4359 307.051 71.65 302.321 71.658V240.272C303.374 236.388 304.406 232.503 305.4 228.611C304.531 253.003 303.65 277.397 302.66 301.784H336.3L337.251 302.617L392.533 351.313C393.771 346.367 395.196 341.474 396.789 336.636L349.458 294.735H318.675V70.6842C317.964 70.7596 317.258 70.8548 316.548 70.9222" fill="white"/>
<path d="M255.964 332.451L269.456 347.638V398.286L282.191 412.235C277.225 390.935 278.08 369.074 281.374 347.555L264.722 328.816C261.845 330.125 258.916 331.317 255.964 332.451" fill="white"/>
<path d="M270.998 325.795L282.79 339.068C284.177 331.398 285.806 323.784 287.542 316.275C282.252 319.708 276.717 322.903 270.998 325.795" fill="white"/>
<path d="M366.335 60.7137V240.686L418.57 286.988C419.917 284.424 421.278 281.871 422.659 279.334C423.205 278.357 423.774 277.387 424.326 276.415L385.245 240.748V55.1265C378.949 57.0226 372.653 58.9128 366.335 60.7137" fill="white"/>
<path d="M422.951 44.6222C417.473 45.9015 412.034 47.3415 406.611 48.8548V110.74L471.074 172.834V210.102C472.566 208.501 474.029 206.879 475.569 205.322C476.769 204.102 478.039 202.974 479.329 201.877V167.858L418.602 107.555V63.8095C418.443 63.75 418.278 63.7143 418.124 63.6389C414.544 61.9332 413.026 57.6491 414.733 54.0731C416.439 50.4951 420.723 48.9798 424.303 50.6835C427.88 52.3892 429.4 56.6733 427.692 60.2513C427.136 61.4156 426.291 62.3359 425.299 63.0222V104.768L486.027 165.073V196.944C490.466 194.088 495.214 191.712 500.169 189.8V163.455L437.281 98.3898V41.4013C432.485 42.4187 427.707 43.5016 422.951 44.6222" fill="white"/>
<path d="M404.298 361.675L473.789 422.888V452.024C479.241 452.44 484.692 452.892 490.143 453.355V420.274C488.297 419.873 486.458 419.484 484.633 419.094C484.144 417.172 483.746 415.238 483.388 413.3L408.84 347.303C407.203 352.055 405.717 356.857 404.298 361.675Z" fill="white"/>
<path d="M158.684 112.367C159.262 113.983 159.284 115.802 158.575 117.516C157.055 121.175 152.855 122.911 149.194 121.391C145.531 119.874 143.795 115.675 145.315 112.016C146.702 108.668 150.331 106.962 153.74 107.849L196.9 61.1083C193.704 61.263 190.503 61.5169 187.297 61.9176C177.227 63.0342 167.381 65.3191 157.871 68.5698L81.326 150.682C81.5244 151.943 81.4114 153.27 80.8836 154.538C79.3676 158.197 75.1671 159.932 71.5042 158.413C67.8414 156.894 66.1032 152.697 67.6231 149.038C69.143 145.376 73.3435 143.639 77.0064 145.158C77.0798 145.188 77.1413 145.238 77.2148 145.271L143.172 74.516C122.153 84.3298 103.313 98.9513 88.2886 116.574C65.3849 143.27 49.9061 176.196 43.382 210.709C43.1757 212.284 42.9375 213.895 42.7173 215.521L53.9003 230.164C56.4341 227.104 58.4679 223.189 60.7379 220.557C59.4462 225.156 58.2576 229.775 57.1385 234.407L71.3117 252.965C72.7423 252.614 74.29 252.68 75.7583 253.287C79.4192 254.808 81.1554 259.005 79.6375 262.666C78.1176 266.327 73.917 268.065 70.2562 266.545C66.6806 265.062 64.9623 261.03 66.2937 257.432L55.2019 242.905C54.4142 246.497 53.684 250.095 52.9895 253.701L59.0295 261.809C60.1029 261.736 61.2042 261.875 62.2637 262.315C65.9266 263.834 67.6628 268.031 66.1448 271.69C64.6249 275.352 60.4244 277.089 56.7615 275.568C53.1007 274.051 51.3645 269.852 52.8844 266.192C53.0054 265.897 53.1721 265.635 53.3289 265.365L51.3426 262.702C50.6263 266.887 49.9636 271.081 49.3624 275.284C49.8644 276.847 49.8664 278.581 49.1858 280.217C49.0033 280.661 48.7751 281.076 48.5171 281.46C44.7075 310.646 43.4534 340.177 43.5903 369.701L85.0425 331.289V221.007C81.588 219.386 79.9748 215.34 81.4491 211.784C82.969 208.123 87.1695 206.385 90.8304 207.905C94.4933 209.424 96.2314 213.623 94.7095 217.282C94.0944 218.768 93.0249 219.916 91.7411 220.678V334.211L43.6618 378.765C43.7292 383.708 43.8364 388.647 43.9693 393.587C46.4139 394.857 48.1004 397.383 48.1004 400.327C48.1004 403.102 46.6043 405.503 44.3919 406.838C44.6697 414.367 44.9912 421.89 45.3642 429.391C45.644 432.896 45.7849 436.428 45.9218 439.967C46.7571 439.628 47.6679 439.431 48.6263 439.431C52.6046 439.431 55.8309 442.656 55.8309 446.635C55.8309 450.61 52.6046 453.837 48.6263 453.837C48.0568 453.837 47.5091 453.753 46.9754 453.628L46.7552 453.837C47.277 458.918 48.158 463.944 49.8287 468.841C57.202 467.923 64.5694 466.953 71.9368 465.971V432.253C69.6886 431.049 68.1449 428.709 68.1449 425.984C68.1449 422.039 71.3415 418.842 75.2881 418.842C79.2327 418.842 82.4312 422.039 82.4312 425.984C82.4312 428.709 80.8836 431.049 78.6355 432.253V465.08C85.2429 464.192 91.8483 463.301 98.4557 462.417V205.983L86.0088 194.707C84.2329 195.56 82.1256 195.707 80.1613 194.894C76.4984 193.374 74.7603 189.176 76.2802 185.514C77.7981 181.853 82.0006 180.117 85.6615 181.635C88.7549 182.92 90.4494 186.113 89.9931 189.281L105.152 203.014V461.518C108.617 461.06 112.083 460.614 115.55 460.166V421.581C115.365 421.567 115.183 421.535 114.994 421.525C115.101 419.919 115.296 418.354 115.55 416.817V190.794L100.944 176.01C99.2395 176.726 97.2592 176.791 95.4139 176.026C91.7511 174.508 90.0149 170.31 91.5328 166.648C93.0527 162.987 97.2553 161.251 100.916 162.769C104.135 164.104 105.861 167.505 105.206 170.794L122.248 188.045V398.524C125.653 392.477 129.927 386.838 134.406 381.296V187.839L121.23 170.121C120.516 170.058 119.8 169.923 119.101 169.633C115.439 168.116 113.704 163.917 115.222 160.256C116.742 156.594 120.941 154.859 124.604 156.376C128.266 157.896 130.005 162.094 128.485 165.754C128.239 166.349 127.899 166.872 127.524 167.358L141.104 185.621V373.117C146.021 367.093 150.783 361 154.512 354.427C165.133 337.582 171.526 317.911 171.762 297.948C172.572 300.656 173.747 303.135 175.203 305.394V170.486L153.23 147.663C151.494 148.435 149.462 148.534 147.569 147.749C143.906 146.229 142.17 142.03 143.69 138.371C145.208 134.71 149.408 132.974 153.069 134.492C156.224 135.801 157.938 139.095 157.385 142.324L181.9 167.787V312.838C185.565 315.823 189.868 318.068 194.434 319.565V116.361C190.904 114.779 189.241 110.677 190.733 107.079C192.253 103.418 196.454 101.682 200.117 103.202C203.778 104.719 205.514 108.918 203.996 112.579C203.397 114.023 202.371 115.154 201.135 115.917V321.184C201.732 321.279 202.333 321.378 202.934 321.448C206.115 321.874 209.323 322.164 212.544 322.334V149.329C209.22 147.651 207.682 143.697 209.131 140.204C210.651 136.542 214.851 134.807 218.514 136.324C222.175 137.843 223.913 142.042 222.391 145.702C221.749 147.255 220.606 148.435 219.243 149.194V322.501C225.171 322.489 231.106 322.047 236.979 321.164L230.011 313.316V77.0012C226.81 75.2736 225.35 71.4001 226.775 67.9709C228.292 64.3095 232.493 62.5721 236.158 64.0914C239.819 65.6087 241.555 69.8094 240.035 73.4707C239.362 75.0891 238.152 76.303 236.709 77.0547V310.775L244.676 319.744C247.944 319.026 251.176 318.163 254.363 317.159L245.648 307.35V201.27C242.299 199.604 240.747 195.629 242.202 192.125C243.72 188.463 247.92 186.728 251.583 188.247C255.246 189.765 256.98 193.963 255.462 197.625C254.823 199.164 253.696 200.336 252.347 201.098V304.807L261.199 314.769C265.217 313.205 269.141 311.408 272.935 309.355C278.457 306.848 280.596 300.931 283.078 295.89C287.916 285.169 292.009 274.156 295.623 262.985V71.531C289.571 71.291 283.533 70.7316 277.503 69.9938V284.475C280.735 286.189 282.215 290.084 280.785 293.529C279.267 297.191 275.066 298.928 271.405 297.411C267.743 295.892 266.004 291.693 267.524 288.031C268.189 286.429 269.383 285.225 270.804 284.471V69.1033C249.27 66.043 227.818 61.3027 206.149 60.9635L158.684 112.367Z" fill="white"/>
<path d="M302.388 308.478C301.696 325.156 300.91 341.833 300.061 358.505L309.629 369.273V405.793L322.649 416.408C324.447 415.51 326.602 415.335 328.606 416.168C332.268 417.685 334.005 421.884 332.485 425.543C330.967 429.205 326.766 430.94 323.103 429.423C320.044 428.154 318.359 425.014 318.764 421.882L302.93 408.974V371.816L299.561 368.023C299.267 373.553 299.007 379.083 298.69 384.612C297.731 398.369 297.217 412.247 294.592 425.815L313.841 446.899C322.349 446.801 330.858 446.78 339.366 446.801V413.153L323.022 397.584C321.451 398.097 319.704 398.101 318.058 397.419C314.397 395.9 312.659 391.701 314.178 388.04C315.696 384.38 319.897 382.645 323.56 384.164C326.967 385.574 328.671 389.305 327.675 392.766L346.065 410.285V446.827C357.904 446.901 369.742 447.091 381.576 447.393L354.45 423.503V377.135L333.038 357.137C331.449 357.676 329.675 357.688 328 356.996C324.34 355.476 322.601 351.278 324.121 347.616C325.641 343.955 329.84 342.219 333.501 343.737C336.886 345.141 338.59 348.826 337.638 352.267L361.149 374.229V420.476L392.017 447.664C398.251 447.857 404.486 448.093 410.718 448.35L405.379 443.935C405.391 444.07 405.396 444.203 405.41 444.338C397.353 439.77 388.926 435.915 380.181 432.904C380.288 431.619 380.413 430.337 380.524 429.056C377.876 427.154 376.77 423.63 378.074 420.488C378.798 418.742 380.143 417.451 381.739 416.725C383.703 398.819 386.477 381.016 389.93 363.352C390.207 361.809 390.517 360.276 390.834 358.741L333.771 308.478H302.388Z" fill="white"/>
<path d="M344.916 66.257C344.408 66.8679 343.813 67.3895 343.148 67.7981V249.22L409.115 305.961C411.131 301.643 413.228 297.363 415.391 293.121L359.639 243.701V62.5739C354.754 63.8968 349.849 65.1424 344.916 66.257" fill="white"/>
<path d="M411.292 340.532L482.069 403.185C481.41 394.833 481.73 386.403 482.637 378.029L418.416 322.794C415.874 328.635 413.497 334.552 411.292 340.532" fill="white"/>
<path d="M401.71 389.944C402.345 398.318 402.863 406.701 403.381 415.085L445.112 450.106C452.442 450.548 459.768 451.03 467.091 451.556V425.908L402.259 368.805C400.398 375.685 401.301 382.911 401.71 389.944Z" fill="white"/>
<path d="M532.568 2.17966V26.2897L586.14 83.1276C592.974 82.4612 599.825 82.4017 606.089 85.7873C603.528 88.5601 602.101 95.1092 597.029 93.0227C596.149 92.6816 595.289 92.2869 594.422 91.916L596.442 94.0561C598.061 93.5959 599.839 93.6732 601.478 94.4547C605.058 96.1624 606.576 100.445 604.869 104.021C603.163 107.599 598.877 109.116 595.297 107.41C591.996 105.837 590.484 102.075 591.605 98.6912L525.87 28.9454V6.40235C521.993 9.29214 518.471 12.638 515.352 16.3232V34.8064L567.57 85.4502C569.342 84.7758 571.368 84.7857 573.211 85.6643C576.792 87.37 578.308 91.6522 576.602 95.2302C574.898 98.8082 570.612 100.326 567.032 98.6178C563.921 97.1362 562.373 93.705 563.143 90.486L508.653 37.6386V25.893C507.046 28.7332 505.651 31.6984 504.522 34.7726C501.958 34.6199 499.398 34.5466 496.841 34.5069V41.7383L571.836 118.055C573.6 117.393 575.616 117.41 577.449 118.283C581.029 119.991 582.545 124.273 580.838 127.851C579.134 131.427 574.848 132.944 571.268 131.239C568.151 129.753 566.6 126.308 567.383 123.081L490.142 44.4754V34.5207C474.634 34.844 459.222 37.0198 443.979 40.0266V95.6825L506.865 160.749V187.509C510.256 186.47 513.687 185.572 517.121 184.83C520.522 184.106 523.937 183.497 527.358 182.975V160.979L466.631 100.677V56.931C466.47 56.8695 466.31 56.8358 466.151 56.7604C462.573 55.0547 461.056 50.7726 462.762 47.1946C464.468 43.6165 468.752 42.0993 472.33 43.805C475.909 45.5107 477.429 49.7928 475.723 53.3709C475.167 54.5371 474.32 55.4574 473.328 56.1437V97.8899L534.057 158.195V182.075C544.96 180.793 555.946 180.359 566.947 180.296V176.47C564.072 174.51 562.957 170.714 564.5 167.477C566.209 163.899 570.493 162.382 574.07 164.087C577.65 165.793 579.168 170.075 577.459 173.653C576.654 175.345 575.259 176.557 573.646 177.204V180.298C583.94 180.357 594.236 180.645 604.478 180.764C606.5 180.72 608.536 180.655 610.578 180.577V172.414L587.438 153.929C585.575 154.77 583.384 154.847 581.394 153.899C577.814 152.195 576.297 147.913 578.003 144.335C579.709 140.757 583.995 139.24 587.573 140.945C590.539 142.359 592.055 145.541 591.529 148.627L617.276 169.193V180.242C623.58 179.845 629.906 179.183 636.106 178.037L629.174 173.689V151.691L603.831 129.979C602.782 129.985 601.72 129.787 600.71 129.305C597.131 127.601 595.613 123.317 597.317 119.739C599.026 116.161 603.309 114.644 606.887 116.349C610.466 118.055 611.984 122.339 610.28 125.917C610.191 126.1 610.072 126.25 609.97 126.423L635.87 148.611V169.986L645.321 175.912C652.704 173.858 659.802 170.934 666.344 166.717C671.787 163.139 676.576 157.975 679.848 152.066L655.766 130.757C653.742 132.072 651.113 132.353 648.772 131.239C645.192 129.533 643.674 125.249 645.383 121.673C647.087 118.097 651.373 116.579 654.952 118.283C657.508 119.503 658.984 122.038 659.014 124.689L682.692 145.642C683.533 143.085 684.069 140.455 684.247 137.806L642.652 101.236C640.744 102.182 638.446 102.305 636.372 101.317C633.273 99.8396 631.729 96.4302 632.477 93.2191C628.132 90.1448 623.787 87.0666 619.481 83.9368C617.616 78.5043 615.667 72.8061 612.455 68.0023V70.7929C615.457 72.7148 616.651 76.5903 615.076 79.8907C613.369 83.4687 609.085 84.986 605.506 83.2783C601.926 81.5746 600.411 77.2924 602.117 73.7124C602.893 72.0841 604.218 70.9079 605.756 70.2455V61.0188C598.037 55.0389 589.656 50.009 581.358 44.8681C581.666 46.3418 581.539 47.9165 580.838 49.3802C579.134 52.9583 574.848 54.4756 571.268 52.7719C567.689 51.0642 566.173 46.7821 567.879 43.2041C568.564 41.7681 569.673 40.6832 570.979 39.987V38.188C570.258 37.7001 569.528 37.2241 568.816 36.7262C561.341 25.6371 558.355 11.2992 547.896 2.26888C545.789 0.648453 543.422 -7.88477e-05 541.003 -7.88477e-05C538.148 -7.88477e-05 535.219 0.904343 532.568 2.17966V2.17966ZM504.409 96.202C500.831 94.4963 499.311 90.2142 501.02 86.6342C502.724 83.0582 507.01 81.5429 510.589 83.2466C514.167 84.9543 515.687 89.2364 513.978 92.8124C513.891 92.9949 513.772 93.1477 513.671 93.3182L539.571 115.508V136.883L551.597 144.426C553.631 143.075 556.288 142.772 558.653 143.899C562.23 145.604 563.748 149.886 562.044 153.464C560.335 157.04 556.052 158.558 552.474 156.852C549.877 155.616 548.387 153.02 548.402 150.325L532.872 140.584V118.587L507.532 96.8764C507.518 96.8764 507.504 96.8764 507.49 96.8764C506.454 96.8764 505.407 96.6761 504.409 96.202" fill="white"/>
<path d="M391.943 53.1133V237.792L427.729 270.455C429.51 267.38 431.33 264.328 433.179 261.289L418.054 247.342V184.239C418.038 184.231 418.018 184.227 418.002 184.219C414.42 182.513 412.903 178.231 414.611 174.655C416.317 171.077 420.601 169.558 424.179 171.264C427.756 172.971 429.276 177.253 427.57 180.829C426.933 182.166 425.935 183.212 424.752 183.912V244.409L436.779 255.5C445.112 242.241 454.188 229.456 464.375 217.584V175.681L399.912 113.589V50.763C397.253 51.5365 394.596 52.3199 391.943 53.1133Z" fill="white"/>
<path d="M210.197 450.992C211.159 450.927 212.121 450.875 213.084 450.812L210.078 447.902C210.117 448.934 210.157 449.963 210.197 450.992Z" fill="white"/>
<path d="M141.104 456.786L141.341 457.022C148.752 456.177 156.173 455.378 163.601 454.687C158.308 444.886 150.484 436.341 141.104 430.353V456.786Z" fill="white"/>
<path d="M201.135 405.809C203.04 409.982 204.732 414.258 206.077 418.699C208.137 424.984 209.05 431.504 209.55 438.073L222.128 450.247C226.922 449.951 231.713 449.673 236.505 449.418L212.544 425.799V341.359C208.742 341.424 204.933 341.321 201.135 340.964V405.809Z" fill="white"/>
<path d="M325.371 69.8709V288.039H351.995L399.162 329.794C401.309 323.891 403.688 318.066 406.232 312.312L336.451 252.293V68.2346C336.358 68.1929 336.28 68.1314 336.189 68.0858C332.604 68.77 328.998 69.3611 325.371 69.8709" fill="white"/>
<path d="M522.971 456.437C526.313 456.782 529.658 457.113 532.999 457.476V450.623C531.608 443.981 529.61 437.339 523.963 433.193C523.636 432.953 523.301 432.735 522.971 432.505V456.437Z" fill="white"/>
<path d="M496.841 453.928C503.321 454.501 509.798 455.104 516.272 455.745V428.525C510.155 425.456 503.543 423.435 496.841 421.803V453.928Z" fill="white"/>
<path d="M219.243 341.043V422.999L245.575 448.949C252.558 448.612 259.542 448.311 266.53 448.051L231.957 412.848V360.171C228.6 358.509 227.043 354.53 228.499 351.02C230.019 347.36 234.219 345.623 237.882 347.142C241.543 348.66 243.281 352.858 241.761 356.52C241.125 358.055 239.999 359.227 238.656 359.987V410.107L275.608 447.738C285.368 447.424 295.133 447.194 304.895 447.034L262.756 400.882V350.179L249.161 334.875C239.416 338.084 229.372 340.252 219.243 341.043Z" fill="white"/>
<path d="M122.248 459.305C126.3 458.795 130.35 458.295 134.405 457.813V426.654C130.534 424.831 126.468 423.431 122.248 422.545V459.305Z" fill="white"/>
<path d="M439.93 281.589L494.269 331.182C495.531 327.852 496.837 324.536 498.17 321.229L445.597 272.741C443.66 275.659 441.771 278.608 439.93 281.589" fill="white"/>
<path d="M430.602 297.657L488.257 348.761C489.337 345.135 490.517 341.541 491.779 337.975L436.382 287.419C434.396 290.794 432.467 294.206 430.602 297.657Z" fill="white"/>
<path d="M421.245 316.392L483.662 370.078C484.263 366.03 484.968 362.008 485.739 358.019C485.904 357.327 486.099 356.643 486.273 355.955L427.417 303.784C425.279 307.945 423.203 312.14 421.245 316.392" fill="white"/>
<path d="M181.899 353.442V371.786C186.042 378.813 190.413 385.733 194.433 392.822V340.091C192.34 339.746 190.248 339.338 188.167 338.85C186.576 343.927 184.451 348.79 181.899 353.442" fill="white"/>
<path d="M44.4644 234.684C46.0002 234.909 47.3713 234.74 48.6174 234.286L42.0894 225.735C42.2739 228.835 42.9366 231.862 44.4644 234.684" fill="white"/>
<path d="M506.866 209.136V265.435C506.947 265.47 507.03 265.486 507.112 265.522C510.689 267.228 512.207 271.51 510.501 275.088C508.796 278.666 504.51 280.183 500.931 278.477C497.351 276.772 495.835 272.49 497.542 268.912C498.141 267.654 499.072 266.666 500.169 265.968V212.27C496.474 214.291 493.018 216.739 489.94 219.791C488.613 221.048 487.331 222.354 486.027 223.635V230.456C486.168 230.511 486.315 230.543 486.456 230.61C490.038 232.314 491.554 236.596 489.847 240.174C488.141 243.752 483.857 245.272 480.277 243.564C476.7 241.858 475.182 237.576 476.886 233.998C477.454 232.812 478.317 231.88 479.329 231.188V230.426C476.515 233.377 473.765 236.382 471.074 239.444V258.608C471.098 258.618 471.124 258.622 471.15 258.634C474.727 260.339 476.245 264.621 474.541 268.2C472.832 271.778 468.549 273.295 464.971 271.589C461.39 269.883 459.872 265.601 461.578 262.021C462.211 260.694 463.201 259.657 464.376 258.957V247.326C459.122 253.729 454.121 260.335 449.397 267.136L500.863 314.603C502.038 311.727 503.215 308.851 504.379 305.971C503.844 304.291 503.903 302.421 504.723 300.703C505.389 299.303 506.457 298.234 507.721 297.534C511.654 287.369 515.213 277.075 517.624 266.397C521.749 249.096 522.761 231.12 527.359 213.948V203.589C520.446 204.922 513.421 206.54 506.866 209.136" fill="white"/>
<path d="M742.254 484.282H747.937V453.926H742.254V484.282Z" fill="white"/>
<path d="M773.271 453.882V472.746L758.394 453.925H753.751V484.281H759.475V463.813L775.44 484.323V484.281H779V453.882H773.271Z" fill="white"/>
<path d="M804.203 453.882V472.746L789.324 453.925H784.681V484.281H790.407V463.813L806.372 484.323V484.281H809.932V453.882H804.203Z" fill="white"/>
<path d="M814.267 469.319C814.267 477.3 819.211 484.976 829.884 484.976C840.555 484.976 845.373 477.126 845.456 469.277C845.544 461.342 840.341 453.317 829.884 453.317C819.386 453.317 814.267 461.342 814.267 469.319V469.319ZM819.904 469.406C819.775 464.289 822.725 458.523 829.884 458.523C837.041 458.523 839.907 464.245 839.819 469.365C839.732 474.351 837.041 479.728 829.884 479.728C822.725 479.728 820.037 474.394 819.904 469.406Z" fill="white"/>
<path d="M870.966 453.926L861.769 477.56L852.616 453.926H846.195L858.818 484.413H864.763L877.387 453.926H870.966Z" fill="white"/>
<path d="M891.398 453.926L877.773 484.282H883.977L886.583 478.557H902.46L905.02 484.282H911.266L897.645 453.926H891.398ZM894.52 460.3L900.161 473.222H888.88L894.52 460.3Z" fill="white"/>
<path d="M907.102 453.926V459.128H916.731V484.282H922.458V459.128H932.091V453.926H907.102Z" fill="white"/>
<path d="M935.601 484.282H941.284V453.926H935.601V484.282Z" fill="white"/>
<path d="M946.229 469.319C946.229 477.3 951.174 484.976 961.849 484.976C972.522 484.976 977.335 477.126 977.423 469.277C977.51 461.342 972.303 453.317 961.849 453.317C951.348 453.317 946.229 461.342 946.229 469.319V469.319ZM951.87 469.406C951.741 464.289 954.69 458.523 961.849 458.523C969.006 458.523 971.869 464.245 971.782 469.365C971.694 474.351 969.006 479.728 961.849 479.728C954.69 479.728 952.001 474.394 951.87 469.406Z" fill="white"/>
<path d="M1001.58 453.882V472.746L986.705 453.925H982.063V484.281H987.79V463.813L1003.75 484.323V484.281H1007.31V453.882H1001.58Z" fill="white"/>
<path d="M1020.46 469.319C1020.5 477.213 1025.27 484.976 1036.55 484.976C1040.93 484.976 1044.96 483.544 1048.09 480.466L1044.18 476.519C1042.19 478.514 1039.2 479.599 1036.55 479.599C1029.04 479.599 1026.14 474.351 1026.09 469.319C1026.05 464.245 1029.22 458.781 1036.55 458.781C1039.2 458.781 1041.89 459.692 1043.88 461.645L1047.7 457.958C1044.58 454.88 1040.67 453.317 1036.55 453.317C1025.57 453.317 1020.41 461.385 1020.46 469.319" fill="white"/>
<path d="M1049.95 469.319C1049.95 477.3 1054.9 484.976 1065.57 484.976C1076.24 484.976 1081.06 477.126 1081.14 469.277C1081.23 461.342 1076.03 453.317 1065.57 453.317C1055.07 453.317 1049.95 461.342 1049.95 469.319V469.319ZM1055.59 469.406C1055.46 464.289 1058.41 458.523 1065.57 458.523C1072.73 458.523 1075.59 464.245 1075.51 469.365C1075.42 474.351 1072.73 479.728 1065.57 479.728C1058.41 479.728 1055.72 474.394 1055.59 469.406Z" fill="white"/>
<path d="M1105.31 453.882V472.746L1090.43 453.925H1085.78V484.281H1091.51V463.813L1107.48 484.323V484.281H1111.04V453.882H1105.31Z" fill="white"/>
<path d="M1115.41 469.319C1115.46 477.213 1120.23 484.976 1131.51 484.976C1135.89 484.976 1139.93 483.544 1143.05 480.466L1139.14 476.519C1137.15 478.514 1134.16 479.599 1131.51 479.599C1124 479.599 1121.1 474.351 1121.05 469.319C1121.01 464.245 1124.18 458.781 1131.51 458.781C1134.16 458.781 1136.85 459.692 1138.84 461.645L1142.66 457.958C1139.54 454.88 1135.63 453.317 1131.51 453.317C1120.53 453.317 1115.37 461.385 1115.41 469.319" fill="white"/>
<path d="M1146.17 453.926V484.282H1168.9V478.645H1151.85V471.794H1168.3V466.457H1151.85V459.477H1168.9V453.926H1146.17Z" fill="white"/>
<path d="M1173.33 453.926V484.282H1179.05V475.348H1187.64C1202.52 475.348 1202.48 453.882 1187.64 453.882C1182.87 453.882 1178.1 453.926 1173.33 453.926V453.926ZM1179.05 459.346H1187.64C1194.93 459.346 1194.97 470.1 1187.64 470.1H1179.05V459.346Z" fill="white"/>
<path d="M1200.87 453.926V459.128H1210.5V484.282H1216.23V459.128H1225.86V453.926H1200.87Z" fill="white"/>
<path d="M1229.38 484.282H1235.06V453.926H1229.38V484.282Z" fill="white"/>
<path d="M1240 469.319C1240 477.3 1244.95 484.976 1255.62 484.976C1266.29 484.976 1271.11 477.126 1271.19 469.277C1271.28 461.342 1266.08 453.317 1255.62 453.317C1245.12 453.317 1240 461.342 1240 469.319V469.319ZM1245.64 469.406C1245.51 464.289 1248.46 458.523 1255.62 458.523C1262.78 458.523 1265.64 464.245 1265.56 469.365C1265.47 474.351 1262.78 479.728 1255.62 479.728C1248.46 479.728 1245.77 474.394 1245.64 469.406Z" fill="white"/>
<path d="M1295.36 453.882V472.746L1280.48 453.925H1275.84V484.281H1281.56V463.813L1297.53 484.323V484.281H1301.08V453.882H1295.36Z" fill="white"/>
<path d="M1315.01 453.926V484.282H1337.74V478.645H1320.69V471.794H1337.13V466.457H1320.69V459.477H1337.74V453.926H1315.01Z" fill="white"/>
<path d="M1365.33 453.926L1356.13 477.56L1346.98 453.926H1340.56L1353.18 484.413H1359.12L1371.75 453.926H1365.33Z" fill="white"/>
<path d="M1373.92 469.319C1373.92 477.3 1378.86 484.976 1389.53 484.976C1400.21 484.976 1405.02 477.126 1405.11 469.277C1405.2 461.342 1399.99 453.317 1389.53 453.317C1379.04 453.317 1373.92 461.342 1373.92 469.319V469.319ZM1379.56 469.406C1379.43 464.289 1382.38 458.523 1389.53 458.523C1396.69 458.523 1399.56 464.245 1399.47 469.365C1399.38 474.351 1396.69 479.728 1389.53 479.728C1382.38 479.728 1379.69 474.394 1379.56 469.406Z" fill="white"/>
<path d="M1409.31 453.926V484.282H1430.66V478.99H1415.04V453.926H1409.31Z" fill="white"/>
<path d="M1453.87 453.97V471.36C1453.87 476.56 1451.18 479.728 1446.45 479.728C1441.72 479.728 1438.6 476.824 1438.6 471.36V453.97H1432.92V471.36C1432.92 480.507 1439.12 484.93 1446.41 484.93C1454.04 484.93 1459.55 480.335 1459.55 471.36V453.97H1453.87Z" fill="white"/>
<path d="M1463.37 453.926V459.128H1473V484.282H1478.73V459.128H1488.36V453.926H1463.37Z" fill="white"/>
<path d="M1491.87 484.282H1497.55V453.926H1491.87V484.282Z" fill="white"/>
<path d="M810.709 12.3912H734.542L734.592 411.807H810.709V12.3912Z" fill="white"/>
<path d="M1572.37 86.1812V12.3888H1273.57V411.805H1572.37V338.012H1348.56V247.822H1565.34V177.543H1348.56L1347.39 86.1812H1572.37Z" fill="white"/>
<path d="M1214.39 347.964C1177.93 386.892 1126.06 411.219 1068.5 411.219C958.162 411.219 868.713 321.807 868.713 211.511C868.713 101.216 958.162 11.8034 1068.5 11.8034C1125.46 11.8034 1176.85 35.6289 1213.25 73.8538L1166.43 120.651C1142.07 94.7456 1107.47 78.5679 1069.09 78.5679C995.313 78.5679 935.505 138.351 935.505 212.097C935.505 285.843 995.313 345.626 1069.09 345.626C1107.47 345.626 1142.07 329.447 1166.44 303.54L1214.39 347.964Z" fill="white"/>
</g>
<defs>
<clipPath id="clip0_1616_9212">
<rect width="1500" height="500" fill="white"/>
</clipPath>
</defs>
</svg>
